solid Ghost_soporte_inferior_Torta
facet normal 2.0139108364161985e-15 -1.0 0.0
outer loop
vertex 76.70448334438535 46.94093713814763 14.400000000000038
vertex 70.88105482957843 47.707606046643576 4.511946363695919e-14
vertex 76.70448334438535 46.94093713814763 4.511946363695919e-14
endloop
endfacet
facet normal -0.25881904510251863 -0.965925826289069 0.0
outer loop
vertex 70.88105482957843 47.707606046643576 4.511946363695919e-14
vertex 76.70448334438535 46.94093713814763 14.400000000000038
vertex 70.88105482957843 47.707606046643576 14.400000000000038
endloop
endfacet
facet normal 0.8660254037844366 0.5000000000000036 0.0
outer loop
vertex 96.19005492953518 80.69093713814753 4.511946363695919e-14
vertex 98.43781443588931 75.26436565295427 14.400000000000038
vertex 98.43781443588931 75.26436565295427 4.511946363695919e-14
endloop
endfacet
facet normal 0.9659258262890682 0.25881904510252074 0.0
outer loop
vertex 98.43781443588931 75.26436565295427 14.400000000000038
vertex 96.19005492953518 80.69093713814753 4.511946363695919e-14
vertex 96.19005492953518 80.69093713814753 14.400000000000038
endloop
endfacet
facet normal 0.7071067811865535 -0.7071067811865418 0.0
outer loop
vertex 92.61438592108256 53.531034561450284 14.400000000000038
vertex 87.95448334438551 49.95536555299774 4.511946363695919e-14
vertex 92.61438592108256 53.531034561450284 4.511946363695919e-14
endloop
endfacet
facet normal 0.500000000000008 -0.8660254037844342 0.0
outer loop
vertex 87.95448334438551 49.95536555299774 4.511946363695919e-14
vertex 92.61438592108256 53.531034561450284 14.400000000000038
vertex 87.95448334438551 49.95536555299774 14.400000000000038
endloop
endfacet
facet normal 0.2588190451025121 0.9659258262890704 0.0
outer loop
vertex 82.5279118591921 91.17426822965155 14.400000000000038
vertex 87.95448334438551 88.92650872329746 4.511946363695919e-14
vertex 82.5279118591921 91.17426822965155 4.511946363695919e-14
endloop
endfacet
facet normal 0.500000000000008 0.866025403784434 0.0
outer loop
vertex 87.95448334438551 88.92650872329746 4.511946363695919e-14
vertex 82.5279118591921 91.17426822965155 14.400000000000038
vertex 87.95448334438551 88.92650872329746 14.400000000000038
endloop
endfacet
facet normal -0.9659258262890682 -0.2588190451025207 0.0
outer loop
vertex 54.97115225288114 63.61750862334087 14.400000000000038
vertex 57.218911759235354 58.190937138147646 4.511946363695919e-14
vertex 57.218911759235354 58.190937138147646 14.400000000000038
endloop
endfacet
facet normal -0.8660254037844377 -0.5000000000000017 0.0
outer loop
vertex 57.218911759235354 58.190937138147646 4.511946363695919e-14
vertex 54.97115225288114 63.61750862334087 14.400000000000038
vertex 54.97115225288114 63.61750862334087 4.511946363695919e-14
endloop
endfacet
facet normal -0.8660254037844377 -0.5000000000000017 0.0
outer loop
vertex 57.218911759235354 58.190937138147646 14.400000000000038
vertex 60.79458076768788 53.531034561450284 4.511946363695919e-14
vertex 60.79458076768788 53.531034561450284 14.400000000000038
endloop
endfacet
facet normal -0.7071067811865496 -0.7071067811865456 0.0
outer loop
vertex 60.79458076768788 53.531034561450284 4.511946363695919e-14
vertex 57.218911759235354 58.190937138147646 14.400000000000038
vertex 57.218911759235354 58.190937138147646 4.511946363695919e-14
endloop
endfacet
facet normal -1.0 1.006955418208099e-15 0.0
outer loop
vertex 54.20448334438524 69.44093713814762 14.400000000000038
vertex 54.97115225288114 63.61750862334087 4.511946363695919e-14
vertex 54.97115225288114 63.61750862334087 14.400000000000038
endloop
endfacet
facet normal -0.9659258262890682 -0.2588190451025207 0.0
outer loop
vertex 54.97115225288114 63.61750862334087 4.511946363695919e-14
vertex 54.20448334438524 69.44093713814762 14.400000000000038
vertex 54.20448334438524 69.44093713814762 4.511946363695919e-14
endloop
endfacet
facet normal 0.7071067811865568 0.7071067811865382 0.0
outer loop
vertex 92.61438592108256 85.35083971484482 4.511946363695919e-14
vertex 96.19005492953518 80.69093713814753 14.400000000000038
vertex 96.19005492953518 80.69093713814753 4.511946363695919e-14
endloop
endfacet
facet normal 0.8660254037844366 0.5000000000000036 0.0
outer loop
vertex 96.19005492953518 80.69093713814753 14.400000000000038
vertex 92.61438592108256 85.35083971484482 4.511946363695919e-14
vertex 92.61438592108256 85.35083971484482 14.400000000000038
endloop
endfacet
facet normal 1.9871775067292598e-15 1.0 0.0
outer loop
vertex 76.70448334438535 91.94093713814753 14.400000000000038
vertex 82.5279118591921 91.17426822965155 4.511946363695919e-14
vertex 76.70448334438535 91.94093713814753 4.511946363695919e-14
endloop
endfacet
facet normal 0.2588190451025121 0.9659258262890704 0.0
outer loop
vertex 82.5279118591921 91.17426822965155 4.511946363695919e-14
vertex 76.70448334438535 91.94093713814753 14.400000000000038
vertex 82.5279118591921 91.17426822965155 14.400000000000038
endloop
endfacet
facet normal 0.25881904510251486 -0.9659258262890698 0.0
outer loop
vertex 82.5279118591921 47.707606046643576 14.400000000000038
vertex 76.70448334438535 46.94093713814763 4.511946363695919e-14
vertex 82.5279118591921 47.707606046643576 4.511946363695919e-14
endloop
endfacet
facet normal 2.0139108364161985e-15 -1.0 0.0
outer loop
vertex 76.70448334438535 46.94093713814763 4.511946363695919e-14
vertex 82.5279118591921 47.707606046643576 14.400000000000038
vertex 76.70448334438535 46.94093713814763 14.400000000000038
endloop
endfacet
facet normal 0.8660254037844377 -0.5000000000000013 0.0
outer loop
vertex 96.19005492953518 58.1909371381476 4.511946363695919e-14
vertex 92.61438592108256 53.531034561450284 14.400000000000038
vertex 92.61438592108256 53.531034561450284 4.511946363695919e-14
endloop
endfacet
facet normal 0.7071067811865535 -0.7071067811865418 0.0
outer loop
vertex 92.61438592108256 53.531034561450284 14.400000000000038
vertex 96.19005492953518 58.1909371381476 4.511946363695919e-14
vertex 96.19005492953518 58.1909371381476 14.400000000000038
endloop
endfacet
facet normal -0.7071067811865512 0.7071067811865438 0.0
outer loop
vertex 60.79458076768788 85.35083971484482 14.400000000000038
vertex 57.218911759235354 80.69093713814753 4.511946363695919e-14
vertex 57.218911759235354 80.69093713814753 14.400000000000038
endloop
endfacet
facet normal -0.8660254037844363 0.5000000000000044 0.0
outer loop
vertex 57.218911759235354 80.69093713814753 4.511946363695919e-14
vertex 60.79458076768788 85.35083971484482 14.400000000000038
vertex 60.79458076768788 85.35083971484482 4.511946363695919e-14
endloop
endfacet
facet normal -0.8660254037844363 0.5000000000000044 0.0
outer loop
vertex 57.218911759235354 80.69093713814753 14.400000000000038
vertex 54.97115225288114 75.26436565295427 4.511946363695919e-14
vertex 54.97115225288114 75.26436565295427 14.400000000000038
endloop
endfacet
facet normal -0.9659258262890684 0.25881904510252035 0.0
outer loop
vertex 54.97115225288114 75.26436565295427 4.511946363695919e-14
vertex 57.218911759235354 80.69093713814753 14.400000000000038
vertex 57.218911759235354 80.69093713814753 4.511946363695919e-14
endloop
endfacet
facet normal -0.7071067811865512 0.7071067811865438 0.0
outer loop
vertex 60.79458076768788 85.35083971484482 14.400000000000038
vertex 65.45448334438521 88.92650872329746 4.511946363695919e-14
vertex 60.79458076768788 85.35083971484482 4.511946363695919e-14
endloop
endfacet
facet normal -0.5000000000000011 0.866025403784438 0.0
outer loop
vertex 65.45448334438521 88.92650872329746 4.511946363695919e-14
vertex 60.79458076768788 85.35083971484482 14.400000000000038
vertex 65.45448334438521 88.92650872329746 14.400000000000038
endloop
endfacet
facet normal -0.25881904510251863 -0.965925826289069 0.0
outer loop
vertex 70.88105482957843 47.707606046643576 14.400000000000038
vertex 65.45448334438521 49.95536555299774 4.511946363695919e-14
vertex 70.88105482957843 47.707606046643576 4.511946363695919e-14
endloop
endfacet
facet normal -0.5000000000000008 -0.8660254037844382 0.0
outer loop
vertex 65.45448334438521 49.95536555299774 4.511946363695919e-14
vertex 70.88105482957843 47.707606046643576 14.400000000000038
vertex 65.45448334438521 49.95536555299774 14.400000000000038
endloop
endfacet
facet normal -0.5000000000000008 -0.8660254037844382 0.0
outer loop
vertex 65.45448334438521 49.95536555299774 14.400000000000038
vertex 60.79458076768788 53.531034561450284 4.511946363695919e-14
vertex 65.45448334438521 49.95536555299774 4.511946363695919e-14
endloop
endfacet
facet normal -0.7071067811865496 -0.7071067811865456 0.0
outer loop
vertex 60.79458076768788 53.531034561450284 4.511946363695919e-14
vertex 65.45448334438521 49.95536555299774 14.400000000000038
vertex 60.79458076768788 53.531034561450284 14.400000000000038
endloop
endfacet
facet normal 0.500000000000008 0.866025403784434 0.0
outer loop
vertex 87.95448334438551 88.92650872329746 14.400000000000038
vertex 92.61438592108256 85.35083971484482 4.511946363695919e-14
vertex 87.95448334438551 88.92650872329746 4.511946363695919e-14
endloop
endfacet
facet normal 0.7071067811865568 0.7071067811865382 0.0
outer loop
vertex 92.61438592108256 85.35083971484482 4.511946363695919e-14
vertex 87.95448334438551 88.92650872329746 14.400000000000038
vertex 92.61438592108256 85.35083971484482 14.400000000000038
endloop
endfacet
facet normal 1.0 9.802220885211601e-16 0.0
outer loop
vertex 99.2044833443853 69.44093713814762 4.511946363695919e-14
vertex 98.43781443588931 63.61750862334087 14.400000000000038
vertex 98.43781443588931 63.61750862334087 4.511946363695919e-14
endloop
endfacet
facet normal 0.9659258262890685 -0.25881904510251985 0.0
outer loop
vertex 98.43781443588931 63.61750862334087 14.400000000000038
vertex 99.2044833443853 69.44093713814762 4.511946363695919e-14
vertex 99.2044833443853 69.44093713814762 14.400000000000038
endloop
endfacet
facet normal 0.9659258262890682 0.25881904510252074 0.0
outer loop
vertex 98.43781443588931 75.26436565295427 4.511946363695919e-14
vertex 99.2044833443853 69.44093713814762 14.400000000000038
vertex 99.2044833443853 69.44093713814762 4.511946363695919e-14
endloop
endfacet
facet normal 1.0 9.802220885211601e-16 0.0
outer loop
vertex 99.2044833443853 69.44093713814762 14.400000000000038
vertex 98.43781443588931 75.26436565295427 4.511946363695919e-14
vertex 98.43781443588931 75.26436565295427 14.400000000000038
endloop
endfacet
facet normal 8.901240254537595e-32 -4.712421311225834e-32 1.0
outer loop
vertex 54.97115225288114 63.61750862334087 14.400000000000038
vertex 54.97115225288114 75.26436565295427 14.400000000000038
vertex 54.20448334438524 69.44093713814762 14.400000000000038
endloop
endfacet
facet normal 8.901240254537595e-32 -4.712421311225834e-32 1.0
outer loop
vertex 54.97115225288114 75.26436565295427 14.400000000000038
vertex 54.97115225288114 63.61750862334087 14.400000000000038
vertex 57.218911759235354 58.190937138147646 14.400000000000038
endloop
endfacet
facet normal 8.901240254537595e-32 -4.712421311225834e-32 1.0
outer loop
vertex 54.97115225288114 75.26436565295427 14.400000000000038
vertex 57.218911759235354 58.190937138147646 14.400000000000038
vertex 57.218911759235354 80.69093713814753 14.400000000000038
endloop
endfacet
facet normal 8.901240254537595e-32 -4.712421311225834e-32 1.0
outer loop
vertex 57.218911759235354 80.69093713814753 14.400000000000038
vertex 57.218911759235354 58.190937138147646 14.400000000000038
vertex 60.79458076768788 53.531034561450284 14.400000000000038
endloop
endfacet
facet normal 8.901240254537595e-32 -4.712421311225834e-32 1.0
outer loop
vertex 57.218911759235354 80.69093713814753 14.400000000000038
vertex 60.79458076768788 53.531034561450284 14.400000000000038
vertex 60.79458076768788 85.35083971484482 14.400000000000038
endloop
endfacet
facet normal 8.901240254537595e-32 -4.712421311225834e-32 1.0
outer loop
vertex 60.79458076768788 85.35083971484482 14.400000000000038
vertex 60.79458076768788 53.531034561450284 14.400000000000038
vertex 62.55249868345172 69.44093713814762 14.400000000000038
endloop
endfacet
facet normal 8.901240254537595e-32 -4.712421311225834e-32 1.0
outer loop
vertex 62.55249868345172 69.44093713814762 14.400000000000038
vertex 60.79458076768788 53.531034561450284 14.400000000000038
vertex 62.64627028683819 68.72867109606797 14.400000000000038
endloop
endfacet
facet normal 8.901240254537595e-32 -4.712421311225834e-32 1.0
outer loop
vertex 62.64627028683819 68.72867109606797 14.400000000000038
vertex 60.79458076768788 53.531034561450284 14.400000000000038
vertex 65.45448334438521 49.95536555299774 14.400000000000038
endloop
endfacet
facet normal 8.901240254537595e-32 -4.712421311225834e-32 1.0
outer loop
vertex 62.64627028683819 68.72867109606797 14.400000000000038
vertex 65.45448334438521 49.95536555299774 14.400000000000038
vertex 62.92119471719175 68.06494480768093 14.400000000000038
endloop
endfacet
facet normal 8.901240254537595e-32 -4.712421311225834e-32 1.0
outer loop
vertex 62.92119471719175 68.06494480768093 14.400000000000038
vertex 65.45448334438521 49.95536555299774 14.400000000000038
vertex 63.358536328917786 67.49499012268018 14.400000000000038
endloop
endfacet
facet normal 8.901240254537595e-32 -4.712421311225834e-32 1.0
outer loop
vertex 63.358536328917786 67.49499012268018 14.400000000000038
vertex 65.45448334438521 49.95536555299774 14.400000000000038
vertex 63.928491013918546 67.05764851095414 14.400000000000038
endloop
endfacet
facet normal 8.901240254537595e-32 -4.712421311225834e-32 1.0
outer loop
vertex 63.928491013918546 67.05764851095414 14.400000000000038
vertex 65.45448334438521 49.95536555299774 14.400000000000038
vertex 64.5922173023056 66.78272408060067 14.400000000000038
endloop
endfacet
facet normal 8.901240254537595e-32 -4.712421311225834e-32 1.0
outer loop
vertex 64.5922173023056 66.78272408060067 14.400000000000038
vertex 65.45448334438521 49.95536555299774 14.400000000000038
vertex 65.30448334438525 66.6889524772142 14.400000000000038
endloop
endfacet
facet normal 8.901240254537595e-32 -4.712421311225834e-32 1.0
outer loop
vertex 65.30448334438525 66.6889524772142 14.400000000000038
vertex 65.45448334438521 49.95536555299774 14.400000000000038
vertex 66.01674938646487 66.78272408060067 14.400000000000038
endloop
endfacet
facet normal 8.901240254537595e-32 -4.712421311225834e-32 1.0
outer loop
vertex 66.01674938646487 66.78272408060067 14.400000000000038
vertex 65.45448334438521 49.95536555299774 14.400000000000038
vertex 70.88105482957843 47.707606046643576 14.400000000000038
endloop
endfacet
facet normal 8.901240254537595e-32 -4.712421311225834e-32 1.0
outer loop
vertex 66.01674938646487 66.78272408060067 14.400000000000038
vertex 70.88105482957843 47.707606046643576 14.400000000000038
vertex 66.68047567485188 67.05764851095417 14.400000000000038
endloop
endfacet
facet normal 8.901240254537595e-32 -4.712421311225834e-32 1.0
outer loop
vertex 66.68047567485188 67.05764851095417 14.400000000000038
vertex 70.88105482957843 47.707606046643576 14.400000000000038
vertex 67.25043035985253 67.4949901226802 14.400000000000038
endloop
endfacet
facet normal 8.901240254537595e-32 -4.712421311225834e-32 1.0
outer loop
vertex 67.25043035985253 67.4949901226802 14.400000000000038
vertex 70.88105482957843 47.707606046643576 14.400000000000038
vertex 67.68777197157863 68.0649448076809 14.400000000000038
endloop
endfacet
facet normal 8.901240254537595e-32 -4.712421311225834e-32 1.0
outer loop
vertex 67.68777197157863 68.0649448076809 14.400000000000038
vertex 70.88105482957843 47.707606046643576 14.400000000000038
vertex 67.9626964019322 68.72867109606797 14.400000000000038
endloop
endfacet
facet normal 8.901240254537595e-32 -4.712421311225834e-32 1.0
outer loop
vertex 67.9626964019322 68.72867109606797 14.400000000000038
vertex 70.88105482957843 47.707606046643576 14.400000000000038
vertex 68.05646800531868 69.44093713814762 14.400000000000038
endloop
endfacet
facet normal 8.901240254537595e-32 -4.712421311225834e-32 1.0
outer loop
vertex 60.79458076768788 85.35083971484482 14.400000000000038
vertex 62.64627028683819 70.15320318022725 14.400000000000038
vertex 65.45448334438521 88.92650872329746 14.400000000000038
endloop
endfacet
facet normal 8.901240254537595e-32 -4.712421311225834e-32 1.0
outer loop
vertex 62.64627028683819 70.15320318022725 14.400000000000038
vertex 60.79458076768788 85.35083971484482 14.400000000000038
vertex 62.55249868345172 69.44093713814762 14.400000000000038
endloop
endfacet
facet normal 8.901240254537595e-32 -4.712421311225834e-32 1.0
outer loop
vertex 65.45448334438521 88.92650872329746 14.400000000000038
vertex 62.64627028683819 70.15320318022725 14.400000000000038
vertex 62.92119471719175 70.81692946861433 14.400000000000038
endloop
endfacet
facet normal 8.901240254537595e-32 -4.712421311225834e-32 1.0
outer loop
vertex 65.45448334438521 88.92650872329746 14.400000000000038
vertex 62.92119471719175 70.81692946861433 14.400000000000038
vertex 63.35853632891781 71.386884153615 14.400000000000038
endloop
endfacet
facet normal 8.901240254537595e-32 -4.712421311225834e-32 1.0
outer loop
vertex 65.45448334438521 88.92650872329746 14.400000000000038
vertex 63.35853632891781 71.386884153615 14.400000000000038
vertex 63.928491013918524 71.8242257653411 14.400000000000038
endloop
endfacet
facet normal 8.901240254537595e-32 -4.712421311225834e-32 1.0
outer loop
vertex 65.45448334438521 88.92650872329746 14.400000000000038
vertex 63.928491013918524 71.8242257653411 14.400000000000038
vertex 64.5922173023056 72.09915019569458 14.400000000000038
endloop
endfacet
facet normal 8.901240254537595e-32 -4.712421311225834e-32 1.0
outer loop
vertex 65.45448334438521 88.92650872329746 14.400000000000038
vertex 64.5922173023056 72.09915019569458 14.400000000000038
vertex 65.30448334438525 72.19292179908105 14.400000000000038
endloop
endfacet
facet normal 8.901240254537595e-32 -4.712421311225834e-32 1.0
outer loop
vertex 65.45448334438521 88.92650872329746 14.400000000000038
vertex 65.30448334438525 72.19292179908105 14.400000000000038
vertex 66.01674938646487 72.09915019569458 14.400000000000038
endloop
endfacet
facet normal 8.901240254537595e-32 -4.712421311225834e-32 1.0
outer loop
vertex 65.45448334438521 88.92650872329746 14.400000000000038
vertex 66.01674938646487 72.09915019569458 14.400000000000038
vertex 70.88105482957843 91.17426822965155 14.400000000000038
endloop
endfacet
facet normal 8.901240254537595e-32 -4.712421311225834e-32 1.0
outer loop
vertex 70.88105482957843 91.17426822965155 14.400000000000038
vertex 66.01674938646487 72.09915019569458 14.400000000000038
vertex 66.6804756748519 71.82422576534108 14.400000000000038
endloop
endfacet
facet normal 8.901240254537595e-32 -4.712421311225834e-32 1.0
outer loop
vertex 70.88105482957843 91.17426822965155 14.400000000000038
vertex 66.6804756748519 71.82422576534108 14.400000000000038
vertex 67.25043035985252 71.38688415361497 14.400000000000038
endloop
endfacet
facet normal 8.901240254537595e-32 -4.712421311225834e-32 1.0
outer loop
vertex 70.88105482957843 91.17426822965155 14.400000000000038
vertex 67.25043035985252 71.38688415361497 14.400000000000038
vertex 67.68777197157861 70.81692946861436 14.400000000000038
endloop
endfacet
facet normal 8.901240254537595e-32 -4.712421311225834e-32 1.0
outer loop
vertex 70.88105482957843 91.17426822965155 14.400000000000038
vertex 67.68777197157861 70.81692946861436 14.400000000000038
vertex 67.9626964019322 70.15320318022725 14.400000000000038
endloop
endfacet
facet normal 8.901240254537595e-32 -4.712421311225834e-32 1.0
outer loop
vertex 70.88105482957843 91.17426822965155 14.400000000000038
vertex 67.9626964019322 70.15320318022725 14.400000000000038
vertex 68.05646800531868 69.44093713814762 14.400000000000038
endloop
endfacet
facet normal 8.901240254537595e-32 -4.712421311225834e-32 1.0
outer loop
vertex 70.88105482957843 91.17426822965155 14.400000000000038
vertex 68.05646800531868 69.44093713814762 14.400000000000038
vertex 70.88105482957843 47.707606046643576 14.400000000000038
endloop
endfacet
facet normal 8.901240254537595e-32 -4.712421311225834e-32 1.0
outer loop
vertex 70.88105482957843 91.17426822965155 14.400000000000038
vertex 70.88105482957843 47.707606046643576 14.400000000000038
vertex 76.70448334438535 46.94093713814763 14.400000000000038
endloop
endfacet
facet normal 8.901240254537595e-32 -4.712421311225834e-32 1.0
outer loop
vertex 70.88105482957843 91.17426822965155 14.400000000000038
vertex 76.70448334438535 46.94093713814763 14.400000000000038
vertex 76.70448334438535 91.94093713814753 14.400000000000038
endloop
endfacet
facet normal 8.901240254537595e-32 -4.712421311225834e-32 1.0
outer loop
vertex 76.70448334438535 91.94093713814753 14.400000000000038
vertex 76.70448334438535 46.94093713814763 14.400000000000038
vertex 82.5279118591921 47.707606046643576 14.400000000000038
endloop
endfacet
facet normal 8.901240254537595e-32 -4.712421311225834e-32 1.0
outer loop
vertex 76.70448334438535 91.94093713814753 14.400000000000038
vertex 82.5279118591921 47.707606046643576 14.400000000000038
vertex 82.5279118591921 91.17426822965155 14.400000000000038
endloop
endfacet
facet normal 8.901240254537595e-32 -4.712421311225834e-32 1.0
outer loop
vertex 82.5279118591921 91.17426822965155 14.400000000000038
vertex 82.5279118591921 47.707606046643576 14.400000000000038
vertex 87.95448334438551 49.95536555299774 14.400000000000038
endloop
endfacet
facet normal 8.901240254537595e-32 -4.712421311225834e-32 1.0
outer loop
vertex 82.5279118591921 91.17426822965155 14.400000000000038
vertex 87.95448334438551 49.95536555299774 14.400000000000038
vertex 87.95448334438551 88.92650872329746 14.400000000000038
endloop
endfacet
facet normal 8.901240254537595e-32 -4.712421311225834e-32 1.0
outer loop
vertex 87.95448334438551 88.92650872329746 14.400000000000038
vertex 87.95448334438551 49.95536555299774 14.400000000000038
vertex 92.61438592108256 53.531034561450284 14.400000000000038
endloop
endfacet
facet normal 8.901240254537595e-32 -4.712421311225834e-32 1.0
outer loop
vertex 87.95448334438551 88.92650872329746 14.400000000000038
vertex 92.61438592108256 53.531034561450284 14.400000000000038
vertex 92.61438592108256 85.35083971484482 14.400000000000038
endloop
endfacet
facet normal 8.901240254537595e-32 -4.712421311225834e-32 1.0
outer loop
vertex 92.61438592108256 85.35083971484482 14.400000000000038
vertex 92.61438592108256 53.531034561450284 14.400000000000038
vertex 96.19005492953518 58.1909371381476 14.400000000000038
endloop
endfacet
facet normal 8.901240254537595e-32 -4.712421311225834e-32 1.0
outer loop
vertex 92.61438592108256 85.35083971484482 14.400000000000038
vertex 96.19005492953518 58.1909371381476 14.400000000000038
vertex 96.19005492953518 80.69093713814753 14.400000000000038
endloop
endfacet
facet normal 8.901240254537595e-32 -4.712421311225834e-32 1.0
outer loop
vertex 96.19005492953518 80.69093713814753 14.400000000000038
vertex 96.19005492953518 58.1909371381476 14.400000000000038
vertex 98.43781443588931 63.61750862334087 14.400000000000038
endloop
endfacet
facet normal 8.901240254537595e-32 -4.712421311225834e-32 1.0
outer loop
vertex 96.19005492953518 80.69093713814753 14.400000000000038
vertex 98.43781443588931 63.61750862334087 14.400000000000038
vertex 98.43781443588931 75.26436565295427 14.400000000000038
endloop
endfacet
facet normal 8.901240254537595e-32 -4.712421311225834e-32 1.0
outer loop
vertex 98.43781443588931 75.26436565295427 14.400000000000038
vertex 98.43781443588931 63.61750862334087 14.400000000000038
vertex 99.2044833443853 69.44093713814762 14.400000000000038
endloop
endfacet
facet normal -0.9659258262890684 0.25881904510252035 0.0
outer loop
vertex 54.97115225288114 75.26436565295427 14.400000000000038
vertex 54.20448334438524 69.44093713814762 4.511946363695919e-14
vertex 54.20448334438524 69.44093713814762 14.400000000000038
endloop
endfacet
facet normal -1.0 1.006955418208099e-15 0.0
outer loop
vertex 54.20448334438524 69.44093713814762 4.511946363695919e-14
vertex 54.97115225288114 75.26436565295427 14.400000000000038
vertex 54.97115225288114 75.26436565295427 4.511946363695919e-14
endloop
endfacet
facet normal 0.500000000000008 -0.8660254037844342 0.0
outer loop
vertex 87.95448334438551 49.95536555299774 14.400000000000038
vertex 82.5279118591921 47.707606046643576 4.511946363695919e-14
vertex 87.95448334438551 49.95536555299774 4.511946363695919e-14
endloop
endfacet
facet normal 0.25881904510251486 -0.9659258262890698 0.0
outer loop
vertex 82.5279118591921 47.707606046643576 4.511946363695919e-14
vertex 87.95448334438551 49.95536555299774 14.400000000000038
vertex 82.5279118591921 47.707606046643576 14.400000000000038
endloop
endfacet
facet normal -0.2588190451025159 0.9659258262890696 0.0
outer loop
vertex 70.88105482957843 91.17426822965155 14.400000000000038
vertex 76.70448334438535 91.94093713814753 4.511946363695919e-14
vertex 70.88105482957843 91.17426822965155 4.511946363695919e-14
endloop
endfacet
facet normal 1.9871775067292598e-15 1.0 0.0
outer loop
vertex 76.70448334438535 91.94093713814753 4.511946363695919e-14
vertex 70.88105482957843 91.17426822965155 14.400000000000038
vertex 76.70448334438535 91.94093713814753 14.400000000000038
endloop
endfacet
facet normal -0.5000000000000011 0.866025403784438 0.0
outer loop
vertex 65.45448334438521 88.92650872329746 14.400000000000038
vertex 70.88105482957843 91.17426822965155 4.511946363695919e-14
vertex 65.45448334438521 88.92650872329746 4.511946363695919e-14
endloop
endfacet
facet normal -0.2588190451025159 0.9659258262890696 0.0
outer loop
vertex 70.88105482957843 91.17426822965155 4.511946363695919e-14
vertex 65.45448334438521 88.92650872329746 14.400000000000038
vertex 70.88105482957843 91.17426822965155 14.400000000000038
endloop
endfacet
facet normal 0.9659258262890685 -0.25881904510251985 0.0
outer loop
vertex 98.43781443588931 63.61750862334087 4.511946363695919e-14
vertex 96.19005492953518 58.1909371381476 14.400000000000038
vertex 96.19005492953518 58.1909371381476 4.511946363695919e-14
endloop
endfacet
facet normal 0.8660254037844377 -0.5000000000000013 0.0
outer loop
vertex 96.19005492953518 58.1909371381476 14.400000000000038
vertex 98.43781443588931 63.61750862334087 4.511946363695919e-14
vertex 98.43781443588931 63.61750862334087 14.400000000000038
endloop
endfacet
facet normal 0.8660254037844309 0.5000000000000133 0.0
outer loop
vertex 62.92119471719175 68.06494480768093 4.7939430203314254e-14
vertex 63.358536328917786 67.49499012268018 14.400000000000038
vertex 63.358536328917786 67.49499012268018 4.7939430203314254e-14
endloop
endfacet
facet normal 0.7071067811865486 0.7071067811865466 0.0
outer loop
vertex 63.358536328917786 67.49499012268018 14.400000000000038
vertex 62.92119471719175 68.06494480768093 4.7939430203314254e-14
vertex 62.92119471719175 68.06494480768093 14.400000000000038
endloop
endfacet
facet normal 0.7071067811865486 0.7071067811865466 0.0
outer loop
vertex 63.358536328917786 67.49499012268018 14.400000000000038
vertex 63.928491013918546 67.05764851095414 4.7939430203314254e-14
vertex 63.358536328917786 67.49499012268018 4.7939430203314254e-14
endloop
endfacet
facet normal 0.4999999999999528 0.8660254037844659 0.0
outer loop
vertex 63.928491013918546 67.05764851095414 4.7939430203314254e-14
vertex 63.358536328917786 67.49499012268018 14.400000000000038
vertex 63.928491013918546 67.05764851095414 14.400000000000038
endloop
endfacet
facet normal 0.4999999999999528 0.8660254037844659 0.0
outer loop
vertex 63.928491013918546 67.05764851095414 14.400000000000038
vertex 64.5922173023056 66.78272408060067 4.7939430203314254e-14
vertex 63.928491013918546 67.05764851095414 4.7939430203314254e-14
endloop
endfacet
facet normal 0.2588190451025162 0.9659258262890696 0.0
outer loop
vertex 64.5922173023056 66.78272408060067 4.7939430203314254e-14
vertex 63.928491013918546 67.05764851095414 14.400000000000038
vertex 64.5922173023056 66.78272408060067 14.400000000000038
endloop
endfacet
facet normal 0.2588190451025162 0.9659258262890696 0.0
outer loop
vertex 64.5922173023056 66.78272408060067 14.400000000000038
vertex 65.30448334438525 66.6889524772142 4.7939430203314254e-14
vertex 64.5922173023056 66.78272408060067 4.7939430203314254e-14
endloop
endfacet
facet normal -2.0584663858944365e-15 1.0 0.0
outer loop
vertex 65.30448334438525 66.6889524772142 4.7939430203314254e-14
vertex 64.5922173023056 66.78272408060067 14.400000000000038
vertex 65.30448334438525 66.6889524772142 14.400000000000038
endloop
endfacet
facet normal -2.0584663858944365e-15 1.0 0.0
outer loop
vertex 65.30448334438525 66.6889524772142 14.400000000000038
vertex 66.01674938646487 66.78272408060067 4.7939430203314254e-14
vertex 65.30448334438525 66.6889524772142 4.7939430203314254e-14
endloop
endfacet
facet normal -0.2588190451025438 0.9659258262890622 0.0
outer loop
vertex 66.01674938646487 66.78272408060067 4.7939430203314254e-14
vertex 65.30448334438525 66.6889524772142 14.400000000000038
vertex 66.01674938646487 66.78272408060067 14.400000000000038
endloop
endfacet
facet normal -0.2588190451025438 0.9659258262890622 0.0
outer loop
vertex 66.01674938646487 66.78272408060067 14.400000000000038
vertex 66.68047567485188 67.05764851095417 4.7939430203314254e-14
vertex 66.01674938646487 66.78272408060067 4.7939430203314254e-14
endloop
endfacet
facet normal -0.5000000000000131 0.866025403784431 0.0
outer loop
vertex 66.68047567485188 67.05764851095417 4.7939430203314254e-14
vertex 66.01674938646487 66.78272408060067 14.400000000000038
vertex 66.68047567485188 67.05764851095417 14.400000000000038
endloop
endfacet
facet normal -0.5000000000000131 0.866025403784431 0.0
outer loop
vertex 66.68047567485188 67.05764851095417 14.400000000000038
vertex 67.25043035985253 67.4949901226802 4.7939430203314254e-14
vertex 66.68047567485188 67.05764851095417 4.7939430203314254e-14
endloop
endfacet
facet normal -0.7071067811865357 0.7071067811865593 0.0
outer loop
vertex 67.25043035985253 67.4949901226802 4.7939430203314254e-14
vertex 66.68047567485188 67.05764851095417 14.400000000000038
vertex 67.25043035985253 67.4949901226802 14.400000000000038
endloop
endfacet
facet normal -0.8660254037844013 0.5000000000000647 0.0
outer loop
vertex 67.68777197157863 68.0649448076809 14.400000000000038
vertex 67.25043035985253 67.4949901226802 4.7939430203314254e-14
vertex 67.25043035985253 67.4949901226802 14.400000000000038
endloop
endfacet
facet normal -0.7071067811865357 0.7071067811865593 0.0
outer loop
vertex 67.25043035985253 67.4949901226802 4.7939430203314254e-14
vertex 67.68777197157863 68.0649448076809 14.400000000000038
vertex 67.68777197157863 68.0649448076809 4.7939430203314254e-14
endloop
endfacet
facet normal -0.9659258262890519 0.2588190451025824 0.0
outer loop
vertex 67.9626964019322 68.72867109606797 14.400000000000038
vertex 67.68777197157863 68.0649448076809 4.7939430203314254e-14
vertex 67.68777197157863 68.0649448076809 14.400000000000038
endloop
endfacet
facet normal -0.8660254037844013 0.5000000000000647 0.0
outer loop
vertex 67.68777197157863 68.0649448076809 4.7939430203314254e-14
vertex 67.9626964019322 68.72867109606797 14.400000000000038
vertex 67.9626964019322 68.72867109606797 4.7939430203314254e-14
endloop
endfacet
facet normal -1.0 -1.0158665281037475e-15 0.0
outer loop
vertex 68.05646800531868 69.44093713814762 14.400000000000038
vertex 67.9626964019322 68.72867109606797 4.7939430203314254e-14
vertex 67.9626964019322 68.72867109606797 14.400000000000038
endloop
endfacet
facet normal -0.9659258262890519 0.2588190451025824 0.0
outer loop
vertex 67.9626964019322 68.72867109606797 4.7939430203314254e-14
vertex 68.05646800531868 69.44093713814762 14.400000000000038
vertex 68.05646800531868 69.44093713814762 4.7939430203314254e-14
endloop
endfacet
facet normal -0.965925826289052 -0.25881904510258164 0.0
outer loop
vertex 67.9626964019322 70.15320318022725 14.400000000000038
vertex 68.05646800531868 69.44093713814762 4.7939430203314254e-14
vertex 68.05646800531868 69.44093713814762 14.400000000000038
endloop
endfacet
facet normal -1.0 -1.0158665281037475e-15 0.0
outer loop
vertex 68.05646800531868 69.44093713814762 4.7939430203314254e-14
vertex 67.9626964019322 70.15320318022725 14.400000000000038
vertex 67.9626964019322 70.15320318022725 4.7939430203314254e-14
endloop
endfacet
facet normal -0.8660254037843854 -0.5000000000000924 0.0
outer loop
vertex 67.68777197157861 70.81692946861436 14.400000000000038
vertex 67.9626964019322 70.15320318022725 4.7939430203314254e-14
vertex 67.9626964019322 70.15320318022725 14.400000000000038
endloop
endfacet
facet normal -0.965925826289052 -0.25881904510258164 0.0
outer loop
vertex 67.9626964019322 70.15320318022725 4.7939430203314254e-14
vertex 67.68777197157861 70.81692946861436 14.400000000000038
vertex 67.68777197157861 70.81692946861436 4.7939430203314254e-14
endloop
endfacet
facet normal -0.707106781186552 -0.7071067811865431 0.0
outer loop
vertex 67.25043035985252 71.38688415361497 14.400000000000038
vertex 67.68777197157861 70.81692946861436 4.7939430203314254e-14
vertex 67.68777197157861 70.81692946861436 14.400000000000038
endloop
endfacet
facet normal -0.8660254037843854 -0.5000000000000924 0.0
outer loop
vertex 67.68777197157861 70.81692946861436 4.7939430203314254e-14
vertex 67.25043035985252 71.38688415361497 14.400000000000038
vertex 67.25043035985252 71.38688415361497 4.7939430203314254e-14
endloop
endfacet
facet normal -0.707106781186552 -0.7071067811865431 0.0
outer loop
vertex 67.25043035985252 71.38688415361497 14.400000000000038
vertex 66.6804756748519 71.82422576534108 4.7939430203314254e-14
vertex 67.25043035985252 71.38688415361497 4.7939430203314254e-14
endloop
endfacet
facet normal -0.5000000000000604 -0.8660254037844037 0.0
outer loop
vertex 66.6804756748519 71.82422576534108 4.7939430203314254e-14
vertex 67.25043035985252 71.38688415361497 14.400000000000038
vertex 66.6804756748519 71.82422576534108 14.400000000000038
endloop
endfacet
facet normal -0.5000000000000604 -0.8660254037844037 0.0
outer loop
vertex 66.6804756748519 71.82422576534108 14.400000000000038
vertex 66.01674938646487 72.09915019569458 4.7939430203314254e-14
vertex 66.6804756748519 71.82422576534108 4.7939430203314254e-14
endloop
endfacet
facet normal -0.25881904510254206 -0.9659258262890627 0.0
outer loop
vertex 66.01674938646487 72.09915019569458 4.7939430203314254e-14
vertex 66.6804756748519 71.82422576534108 14.400000000000038
vertex 66.01674938646487 72.09915019569458 14.400000000000038
endloop
endfacet
facet normal -0.25881904510254206 -0.9659258262890627 0.0
outer loop
vertex 66.01674938646487 72.09915019569458 14.400000000000038
vertex 65.30448334438525 72.19292179908105 4.7939430203314254e-14
vertex 66.01674938646487 72.09915019569458 4.7939430203314254e-14
endloop
endfacet
facet normal -2.0584663858944365e-15 -1.0 0.0
outer loop
vertex 65.30448334438525 72.19292179908105 4.7939430203314254e-14
vertex 66.01674938646487 72.09915019569458 14.400000000000038
vertex 65.30448334438525 72.19292179908105 14.400000000000038
endloop
endfacet
facet normal -2.0584663858944365e-15 -1.0 0.0
outer loop
vertex 65.30448334438525 72.19292179908105 14.400000000000038
vertex 64.5922173023056 72.09915019569458 4.7939430203314254e-14
vertex 65.30448334438525 72.19292179908105 4.7939430203314254e-14
endloop
endfacet
facet normal 0.25881904510251735 -0.9659258262890692 0.0
outer loop
vertex 64.5922173023056 72.09915019569458 4.7939430203314254e-14
vertex 65.30448334438525 72.19292179908105 14.400000000000038
vertex 64.5922173023056 72.09915019569458 14.400000000000038
endloop
endfacet
facet normal 0.25881904510251735 -0.9659258262890692 0.0
outer loop
vertex 64.5922173023056 72.09915019569458 14.400000000000038
vertex 63.928491013918524 71.8242257653411 4.7939430203314254e-14
vertex 64.5922173023056 72.09915019569458 4.7939430203314254e-14
endloop
endfacet
facet normal 0.5000000000000028 -0.8660254037844369 0.0
outer loop
vertex 63.928491013918524 71.8242257653411 4.7939430203314254e-14
vertex 64.5922173023056 72.09915019569458 14.400000000000038
vertex 63.928491013918524 71.8242257653411 14.400000000000038
endloop
endfacet
facet normal 0.5000000000000028 -0.8660254037844369 0.0
outer loop
vertex 63.928491013918524 71.8242257653411 14.400000000000038
vertex 63.35853632891781 71.386884153615 4.7939430203314254e-14
vertex 63.928491013918524 71.8242257653411 4.7939430203314254e-14
endloop
endfacet
facet normal 0.7071067811865528 -0.7071067811865425 0.0
outer loop
vertex 63.35853632891781 71.386884153615 4.7939430203314254e-14
vertex 63.928491013918524 71.8242257653411 14.400000000000038
vertex 63.35853632891781 71.386884153615 14.400000000000038
endloop
endfacet
facet normal 0.7071067811865528 -0.7071067811865425 0.0
outer loop
vertex 63.35853632891781 71.386884153615 4.7939430203314254e-14
vertex 62.92119471719175 70.81692946861433 14.400000000000038
vertex 62.92119471719175 70.81692946861433 4.7939430203314254e-14
endloop
endfacet
facet normal 0.8660254037844118 -0.5000000000000467 0.0
outer loop
vertex 62.92119471719175 70.81692946861433 14.400000000000038
vertex 63.35853632891781 71.386884153615 4.7939430203314254e-14
vertex 63.35853632891781 71.386884153615 14.400000000000038
endloop
endfacet
facet normal 0.8660254037844118 -0.5000000000000467 0.0
outer loop
vertex 62.92119471719175 70.81692946861433 4.7939430203314254e-14
vertex 62.64627028683819 70.15320318022725 14.400000000000038
vertex 62.64627028683819 70.15320318022725 4.7939430203314254e-14
endloop
endfacet
facet normal 0.9659258262890542 -0.2588190451025734 0.0
outer loop
vertex 62.64627028683819 70.15320318022725 14.400000000000038
vertex 62.92119471719175 70.81692946861433 4.7939430203314254e-14
vertex 62.92119471719175 70.81692946861433 14.400000000000038
endloop
endfacet
facet normal 0.9659258262890542 -0.2588190451025734 0.0
outer loop
vertex 62.64627028683819 70.15320318022725 4.7939430203314254e-14
vertex 62.55249868345172 69.44093713814762 14.400000000000038
vertex 62.55249868345172 69.44093713814762 4.7939430203314254e-14
endloop
endfacet
facet normal 1.0 -1.0158665281037475e-15 0.0
outer loop
vertex 62.55249868345172 69.44093713814762 14.400000000000038
vertex 62.64627028683819 70.15320318022725 4.7939430203314254e-14
vertex 62.64627028683819 70.15320318022725 14.400000000000038
endloop
endfacet
facet normal 1.0 -1.0158665281037475e-15 0.0
outer loop
vertex 62.55249868345172 69.44093713814762 4.7939430203314254e-14
vertex 62.64627028683819 68.72867109606797 14.400000000000038
vertex 62.64627028683819 68.72867109606797 4.7939430203314254e-14
endloop
endfacet
facet normal 0.9659258262890514 0.2588190451025841 0.0
outer loop
vertex 62.64627028683819 68.72867109606797 14.400000000000038
vertex 62.55249868345172 69.44093713814762 4.7939430203314254e-14
vertex 62.55249868345172 69.44093713814762 14.400000000000038
endloop
endfacet
facet normal 0.9659258262890514 0.2588190451025841 0.0
outer loop
vertex 62.64627028683819 68.72867109606797 4.7939430203314254e-14
vertex 62.92119471719175 68.06494480768093 14.400000000000038
vertex 62.92119471719175 68.06494480768093 4.7939430203314254e-14
endloop
endfacet
facet normal 0.8660254037844309 0.5000000000000133 0.0
outer loop
vertex 62.92119471719175 68.06494480768093 14.400000000000038
vertex 62.64627028683819 68.72867109606797 4.7939430203314254e-14
vertex 62.64627028683819 68.72867109606797 14.400000000000038
endloop
endfacet
facet normal -5.045331331574912e-17 1.7154259673101756e-31 -1.0
outer loop
vertex 54.97115225288114 75.26436565295427 4.511946363695919e-14
vertex 54.97115225288114 63.61750862334087 4.511946363695919e-14
vertex 54.20448334438524 69.44093713814762 4.511946363695919e-14
endloop
endfacet
facet normal -5.045331331574912e-17 1.7154259673101756e-31 -1.0
outer loop
vertex 54.97115225288114 63.61750862334087 4.511946363695919e-14
vertex 54.97115225288114 75.26436565295427 4.511946363695919e-14
vertex 57.218911759235354 80.69093713814753 4.511946363695919e-14
endloop
endfacet
facet normal -5.045331331574912e-17 1.7154259673101756e-31 -1.0
outer loop
vertex 54.97115225288114 63.61750862334087 4.511946363695919e-14
vertex 57.218911759235354 80.69093713814753 4.511946363695919e-14
vertex 57.218911759235354 58.190937138147646 4.511946363695919e-14
endloop
endfacet
facet normal -5.045331331574912e-17 1.7154259673101756e-31 -1.0
outer loop
vertex 57.218911759235354 58.190937138147646 4.511946363695919e-14
vertex 57.218911759235354 80.69093713814753 4.511946363695919e-14
vertex 60.79458076768788 85.35083971484482 4.511946363695919e-14
endloop
endfacet
facet normal -5.045331331574912e-17 1.7154259673101756e-31 -1.0
outer loop
vertex 57.218911759235354 58.190937138147646 4.511946363695919e-14
vertex 60.79458076768788 85.35083971484482 4.511946363695919e-14
vertex 60.79458076768788 53.531034561450284 4.511946363695919e-14
endloop
endfacet
facet normal -5.045331331574912e-17 1.7154259673101756e-31 -1.0
outer loop
vertex 60.79458076768788 53.531034561450284 4.511946363695919e-14
vertex 60.79458076768788 85.35083971484482 4.511946363695919e-14
vertex 62.55249868345172 69.44093713814762 4.7939430203314254e-14
endloop
endfacet
facet normal -5.045331331574912e-17 1.7154259673101756e-31 -1.0
outer loop
vertex 62.55249868345172 69.44093713814762 4.7939430203314254e-14
vertex 60.79458076768788 85.35083971484482 4.511946363695919e-14
vertex 62.64627028683819 70.15320318022725 4.7939430203314254e-14
endloop
endfacet
facet normal -5.045331331574912e-17 1.7154259673101756e-31 -1.0
outer loop
vertex 62.64627028683819 70.15320318022725 4.7939430203314254e-14
vertex 60.79458076768788 85.35083971484482 4.511946363695919e-14
vertex 65.45448334438521 88.92650872329746 4.511946363695919e-14
endloop
endfacet
facet normal -5.045331331574912e-17 1.7154259673101756e-31 -1.0
outer loop
vertex 62.64627028683819 70.15320318022725 4.7939430203314254e-14
vertex 65.45448334438521 88.92650872329746 4.511946363695919e-14
vertex 62.92119471719175 70.81692946861433 4.7939430203314254e-14
endloop
endfacet
facet normal -5.045331331574912e-17 1.7154259673101756e-31 -1.0
outer loop
vertex 62.92119471719175 70.81692946861433 4.7939430203314254e-14
vertex 65.45448334438521 88.92650872329746 4.511946363695919e-14
vertex 63.35853632891781 71.386884153615 4.7939430203314254e-14
endloop
endfacet
facet normal -5.045331331574912e-17 1.7154259673101756e-31 -1.0
outer loop
vertex 63.35853632891781 71.386884153615 4.7939430203314254e-14
vertex 65.45448334438521 88.92650872329746 4.511946363695919e-14
vertex 63.928491013918524 71.8242257653411 4.7939430203314254e-14
endloop
endfacet
facet normal -5.045331331574912e-17 1.7154259673101756e-31 -1.0
outer loop
vertex 63.928491013918524 71.8242257653411 4.7939430203314254e-14
vertex 65.45448334438521 88.92650872329746 4.511946363695919e-14
vertex 64.5922173023056 72.09915019569458 4.7939430203314254e-14
endloop
endfacet
facet normal -5.045331331574912e-17 1.7154259673101756e-31 -1.0
outer loop
vertex 64.5922173023056 72.09915019569458 4.7939430203314254e-14
vertex 65.45448334438521 88.92650872329746 4.511946363695919e-14
vertex 65.30448334438525 72.19292179908105 4.7939430203314254e-14
endloop
endfacet
facet normal -5.045331331574912e-17 1.7154259673101756e-31 -1.0
outer loop
vertex 65.30448334438525 72.19292179908105 4.7939430203314254e-14
vertex 65.45448334438521 88.92650872329746 4.511946363695919e-14
vertex 66.01674938646487 72.09915019569458 4.7939430203314254e-14
endloop
endfacet
facet normal -5.045331331574912e-17 1.7154259673101756e-31 -1.0
outer loop
vertex 66.01674938646487 72.09915019569458 4.7939430203314254e-14
vertex 65.45448334438521 88.92650872329746 4.511946363695919e-14
vertex 70.88105482957843 91.17426822965155 4.511946363695919e-14
endloop
endfacet
facet normal -5.045331331574912e-17 1.7154259673101756e-31 -1.0
outer loop
vertex 66.01674938646487 72.09915019569458 4.7939430203314254e-14
vertex 70.88105482957843 91.17426822965155 4.511946363695919e-14
vertex 66.6804756748519 71.82422576534108 4.7939430203314254e-14
endloop
endfacet
facet normal -5.045331331574912e-17 1.7154259673101756e-31 -1.0
outer loop
vertex 66.6804756748519 71.82422576534108 4.7939430203314254e-14
vertex 70.88105482957843 91.17426822965155 4.511946363695919e-14
vertex 67.25043035985252 71.38688415361497 4.7939430203314254e-14
endloop
endfacet
facet normal -5.045331331574912e-17 1.7154259673101756e-31 -1.0
outer loop
vertex 67.25043035985252 71.38688415361497 4.7939430203314254e-14
vertex 70.88105482957843 91.17426822965155 4.511946363695919e-14
vertex 67.68777197157861 70.81692946861436 4.7939430203314254e-14
endloop
endfacet
facet normal -5.045331331574912e-17 1.7154259673101756e-31 -1.0
outer loop
vertex 67.68777197157861 70.81692946861436 4.7939430203314254e-14
vertex 70.88105482957843 91.17426822965155 4.511946363695919e-14
vertex 67.9626964019322 70.15320318022725 4.7939430203314254e-14
endloop
endfacet
facet normal -5.045331331574912e-17 1.7154259673101756e-31 -1.0
outer loop
vertex 67.9626964019322 70.15320318022725 4.7939430203314254e-14
vertex 70.88105482957843 91.17426822965155 4.511946363695919e-14
vertex 68.05646800531868 69.44093713814762 4.7939430203314254e-14
endloop
endfacet
facet normal -5.045331331574912e-17 1.7154259673101756e-31 -1.0
outer loop
vertex 60.79458076768788 53.531034561450284 4.511946363695919e-14
vertex 62.64627028683819 68.72867109606797 4.7939430203314254e-14
vertex 65.45448334438521 49.95536555299774 4.511946363695919e-14
endloop
endfacet
facet normal -5.045331331574912e-17 1.7154259673101756e-31 -1.0
outer loop
vertex 62.64627028683819 68.72867109606797 4.7939430203314254e-14
vertex 60.79458076768788 53.531034561450284 4.511946363695919e-14
vertex 62.55249868345172 69.44093713814762 4.7939430203314254e-14
endloop
endfacet
facet normal -5.045331331574912e-17 1.7154259673101756e-31 -1.0
outer loop
vertex 65.45448334438521 49.95536555299774 4.511946363695919e-14
vertex 62.64627028683819 68.72867109606797 4.7939430203314254e-14
vertex 62.92119471719175 68.06494480768093 4.7939430203314254e-14
endloop
endfacet
facet normal -5.045331331574912e-17 1.7154259673101756e-31 -1.0
outer loop
vertex 65.45448334438521 49.95536555299774 4.511946363695919e-14
vertex 62.92119471719175 68.06494480768093 4.7939430203314254e-14
vertex 63.358536328917786 67.49499012268018 4.7939430203314254e-14
endloop
endfacet
facet normal -5.045331331574912e-17 1.7154259673101756e-31 -1.0
outer loop
vertex 65.45448334438521 49.95536555299774 4.511946363695919e-14
vertex 63.358536328917786 67.49499012268018 4.7939430203314254e-14
vertex 63.928491013918546 67.05764851095414 4.7939430203314254e-14
endloop
endfacet
facet normal -5.045331331574912e-17 1.7154259673101756e-31 -1.0
outer loop
vertex 65.45448334438521 49.95536555299774 4.511946363695919e-14
vertex 63.928491013918546 67.05764851095414 4.7939430203314254e-14
vertex 64.5922173023056 66.78272408060067 4.7939430203314254e-14
endloop
endfacet
facet normal -5.045331331574912e-17 1.7154259673101756e-31 -1.0
outer loop
vertex 65.45448334438521 49.95536555299774 4.511946363695919e-14
vertex 64.5922173023056 66.78272408060067 4.7939430203314254e-14
vertex 65.30448334438525 66.6889524772142 4.7939430203314254e-14
endloop
endfacet
facet normal -5.045331331574912e-17 1.7154259673101756e-31 -1.0
outer loop
vertex 65.45448334438521 49.95536555299774 4.511946363695919e-14
vertex 65.30448334438525 66.6889524772142 4.7939430203314254e-14
vertex 66.01674938646487 66.78272408060067 4.7939430203314254e-14
endloop
endfacet
facet normal -5.045331331574912e-17 1.7154259673101756e-31 -1.0
outer loop
vertex 65.45448334438521 49.95536555299774 4.511946363695919e-14
vertex 66.01674938646487 66.78272408060067 4.7939430203314254e-14
vertex 70.88105482957843 47.707606046643576 4.511946363695919e-14
endloop
endfacet
facet normal -5.045331331574912e-17 1.7154259673101756e-31 -1.0
outer loop
vertex 70.88105482957843 47.707606046643576 4.511946363695919e-14
vertex 66.01674938646487 66.78272408060067 4.7939430203314254e-14
vertex 66.68047567485188 67.05764851095417 4.7939430203314254e-14
endloop
endfacet
facet normal -5.045331331574912e-17 1.7154259673101756e-31 -1.0
outer loop
vertex 70.88105482957843 47.707606046643576 4.511946363695919e-14
vertex 66.68047567485188 67.05764851095417 4.7939430203314254e-14
vertex 67.25043035985253 67.4949901226802 4.7939430203314254e-14
endloop
endfacet
facet normal -5.045331331574912e-17 1.7154259673101756e-31 -1.0
outer loop
vertex 70.88105482957843 47.707606046643576 4.511946363695919e-14
vertex 67.25043035985253 67.4949901226802 4.7939430203314254e-14
vertex 67.68777197157863 68.0649448076809 4.7939430203314254e-14
endloop
endfacet
facet normal -5.045331331574912e-17 1.7154259673101756e-31 -1.0
outer loop
vertex 70.88105482957843 47.707606046643576 4.511946363695919e-14
vertex 67.68777197157863 68.0649448076809 4.7939430203314254e-14
vertex 67.9626964019322 68.72867109606797 4.7939430203314254e-14
endloop
endfacet
facet normal -5.045331331574912e-17 1.7154259673101756e-31 -1.0
outer loop
vertex 70.88105482957843 47.707606046643576 4.511946363695919e-14
vertex 67.9626964019322 68.72867109606797 4.7939430203314254e-14
vertex 68.05646800531868 69.44093713814762 4.7939430203314254e-14
endloop
endfacet
facet normal -5.045331331574912e-17 1.7154259673101756e-31 -1.0
outer loop
vertex 70.88105482957843 47.707606046643576 4.511946363695919e-14
vertex 68.05646800531868 69.44093713814762 4.7939430203314254e-14
vertex 70.88105482957843 91.17426822965155 4.511946363695919e-14
endloop
endfacet
facet normal -5.045331331574912e-17 1.7154259673101756e-31 -1.0
outer loop
vertex 70.88105482957843 47.707606046643576 4.511946363695919e-14
vertex 70.88105482957843 91.17426822965155 4.511946363695919e-14
vertex 76.70448334438535 91.94093713814753 4.511946363695919e-14
endloop
endfacet
facet normal -5.045331331574912e-17 1.7154259673101756e-31 -1.0
outer loop
vertex 70.88105482957843 47.707606046643576 4.511946363695919e-14
vertex 76.70448334438535 91.94093713814753 4.511946363695919e-14
vertex 76.70448334438535 46.94093713814763 4.511946363695919e-14
endloop
endfacet
facet normal -5.045331331574912e-17 1.7154259673101756e-31 -1.0
outer loop
vertex 76.70448334438535 46.94093713814763 4.511946363695919e-14
vertex 76.70448334438535 91.94093713814753 4.511946363695919e-14
vertex 82.5279118591921 91.17426822965155 4.511946363695919e-14
endloop
endfacet
facet normal -5.045331331574912e-17 1.7154259673101756e-31 -1.0
outer loop
vertex 76.70448334438535 46.94093713814763 4.511946363695919e-14
vertex 82.5279118591921 91.17426822965155 4.511946363695919e-14
vertex 82.5279118591921 47.707606046643576 4.511946363695919e-14
endloop
endfacet
facet normal -5.045331331574912e-17 1.7154259673101756e-31 -1.0
outer loop
vertex 82.5279118591921 47.707606046643576 4.511946363695919e-14
vertex 82.5279118591921 91.17426822965155 4.511946363695919e-14
vertex 87.95448334438551 88.92650872329746 4.511946363695919e-14
endloop
endfacet
facet normal -5.045331331574912e-17 1.7154259673101756e-31 -1.0
outer loop
vertex 82.5279118591921 47.707606046643576 4.511946363695919e-14
vertex 87.95448334438551 88.92650872329746 4.511946363695919e-14
vertex 87.95448334438551 49.95536555299774 4.511946363695919e-14
endloop
endfacet
facet normal -5.045331331574912e-17 1.7154259673101756e-31 -1.0
outer loop
vertex 87.95448334438551 49.95536555299774 4.511946363695919e-14
vertex 87.95448334438551 88.92650872329746 4.511946363695919e-14
vertex 92.61438592108256 85.35083971484482 4.511946363695919e-14
endloop
endfacet
facet normal -5.045331331574912e-17 1.7154259673101756e-31 -1.0
outer loop
vertex 87.95448334438551 49.95536555299774 4.511946363695919e-14
vertex 92.61438592108256 85.35083971484482 4.511946363695919e-14
vertex 92.61438592108256 53.531034561450284 4.511946363695919e-14
endloop
endfacet
facet normal -5.045331331574912e-17 1.7154259673101756e-31 -1.0
outer loop
vertex 92.61438592108256 53.531034561450284 4.511946363695919e-14
vertex 92.61438592108256 85.35083971484482 4.511946363695919e-14
vertex 96.19005492953518 80.69093713814753 4.511946363695919e-14
endloop
endfacet
facet normal -5.045331331574912e-17 1.7154259673101756e-31 -1.0
outer loop
vertex 92.61438592108256 53.531034561450284 4.511946363695919e-14
vertex 96.19005492953518 80.69093713814753 4.511946363695919e-14
vertex 96.19005492953518 58.1909371381476 4.511946363695919e-14
endloop
endfacet
facet normal -5.045331331574912e-17 1.7154259673101756e-31 -1.0
outer loop
vertex 96.19005492953518 58.1909371381476 4.511946363695919e-14
vertex 96.19005492953518 80.69093713814753 4.511946363695919e-14
vertex 98.43781443588931 75.26436565295427 4.511946363695919e-14
endloop
endfacet
facet normal -5.045331331574912e-17 1.7154259673101756e-31 -1.0
outer loop
vertex 96.19005492953518 58.1909371381476 4.511946363695919e-14
vertex 98.43781443588931 75.26436565295427 4.511946363695919e-14
vertex 98.43781443588931 63.61750862334087 4.511946363695919e-14
endloop
endfacet
facet normal -5.045331331574912e-17 1.7154259673101756e-31 -1.0
outer loop
vertex 98.43781443588931 63.61750862334087 4.511946363695919e-14
vertex 98.43781443588931 75.26436565295427 4.511946363695919e-14
vertex 99.2044833443853 69.44093713814762 4.511946363695919e-14
endloop
endfacet
endsolid Ghost_soporte_inferior_Torta
