solid Ghost_Tapa
facet normal -0.682318250360012 0.7310552682428682 0.0
outer loop
vertex 43.205413839717224 125.37884934265307 1.9999999999999998
vertex 40.80238511201757 122.49506326363505 0.0
vertex 40.80238511201757 122.49506326363505 1.9999999999999998
endloop
endfacet
facet normal -0.8421396384255477 0.5392595195195796 0.0
outer loop
vertex 40.80238511201757 122.49506326363505 0.0
vertex 43.205413839717224 125.37884934265307 1.9999999999999998
vertex 43.205413839717224 125.37884934265307 0.0
endloop
endfacet
facet normal -0.682318250360012 0.7310552682428682 0.0
outer loop
vertex 43.205413839717224 125.37884934265307 1.9999999999999998
vertex 46.24787936534871 127.57752456674413 0.0
vertex 43.205413839717224 125.37884934265307 0.0
endloop
endfacet
facet normal -0.4799689992491283 0.8772854494175715 0.0
outer loop
vertex 46.24787936534871 127.57752456674413 0.0
vertex 43.205413839717224 125.37884934265307 1.9999999999999998
vertex 46.24787936534871 127.57752456674413 1.9999999999999998
endloop
endfacet
facet normal -0.4799689992491283 0.8772854494175715 0.0
outer loop
vertex 46.24787936534871 127.57752456674413 1.9999999999999998
vertex 49.7401494210869 128.95404883949868 0.0
vertex 46.24787936534871 127.57752456674413 0.0
endloop
endfacet
facet normal -0.2477040074185597 0.9688357573442395 0.0
outer loop
vertex 49.7401494210869 128.95404883949868 0.0
vertex 46.24787936534871 127.57752456674413 1.9999999999999998
vertex 49.7401494210869 128.95404883949868 1.9999999999999998
endloop
endfacet
facet normal 1.0 0.0 0.0
outer loop
vertex 68.46455610405884 115.42262548800136 0.0
vertex 68.46455610405884 49.422625488001344 1.9999999999999998
vertex 68.46455610405884 49.422625488001344 0.0
endloop
endfacet
facet normal 1.0 0.0 0.0
outer loop
vertex 68.46455610405884 49.422625488001344 1.9999999999999998
vertex 68.46455610405884 115.42262548800136 0.0
vertex 68.46455610405884 115.42262548800136 1.9999999999999998
endloop
endfacet
facet normal 0.9494717384072254 0.3138525417548206 0.0
outer loop
vertex 67.74054188511033 119.10590834795772 0.0
vertex 68.46455610405884 115.42262548800136 1.9999999999999998
vertex 68.46455610405884 115.42262548800136 0.0
endloop
endfacet
facet normal 0.9812230034231396 0.19287669002052457 0.0
outer loop
vertex 68.46455610405884 115.42262548800136 1.9999999999999998
vertex 67.74054188511033 119.10590834795772 0.0
vertex 67.74054188511033 119.10590834795772 1.9999999999999998
endloop
endfacet
facet normal -0.2477040074185597 0.9688357573442395 0.0
outer loop
vertex 49.7401494210869 128.95404883949868 1.9999999999999998
vertex 53.46455610405883 129.42262548800136 0.0
vertex 49.7401494210869 128.95404883949868 0.0
endloop
endfacet
facet normal 0.0 1.0 0.0
outer loop
vertex 53.46455610405883 129.42262548800136 0.0
vertex 49.7401494210869 128.95404883949868 1.9999999999999998
vertex 53.46455610405883 129.42262548800136 1.9999999999999998
endloop
endfacet
facet normal -0.0 -1.0 -0.0
outer loop
vertex 68.46455610405884 49.422625488001344 1.9999999999999998
vertex 38.46455610405883 49.422625488001344 0.0
vertex 68.46455610405884 49.422625488001344 0.0
endloop
endfacet
facet normal -0.0 -1.0 -0.0
outer loop
vertex 38.46455610405883 49.422625488001344 0.0
vertex 68.46455610405884 49.422625488001344 1.9999999999999998
vertex 38.46455610405883 49.422625488001344 1.9999999999999998
endloop
endfacet
facet normal -0.8421396384255477 0.5392595195195796 0.0
outer loop
vertex 40.80238511201757 122.49506326363505 1.9999999999999998
vertex 39.18857032300732 119.10590834795772 0.0
vertex 39.18857032300732 119.10590834795772 1.9999999999999998
endloop
endfacet
facet normal -0.9494717384072264 0.3138525417548178 0.0
outer loop
vertex 39.18857032300732 119.10590834795772 0.0
vertex 40.80238511201757 122.49506326363505 1.9999999999999998
vertex 40.80238511201757 122.49506326363505 0.0
endloop
endfacet
facet normal 0.2477040074185597 0.9688357573442395 0.0
outer loop
vertex 57.18896278703075 128.95404883949868 1.9999999999999998
vertex 60.68123284276894 127.57752456674413 0.0
vertex 57.18896278703075 128.95404883949868 0.0
endloop
endfacet
facet normal 0.47996899924912906 0.8772854494175711 0.0
outer loop
vertex 60.68123284276894 127.57752456674413 0.0
vertex 57.18896278703075 128.95404883949868 1.9999999999999998
vertex 60.68123284276894 127.57752456674413 1.9999999999999998
endloop
endfacet
facet normal 0.47996899924912906 0.8772854494175711 0.0
outer loop
vertex 60.68123284276894 127.57752456674413 1.9999999999999998
vertex 63.72369836840041 125.37884934265307 0.0
vertex 60.68123284276894 127.57752456674413 0.0
endloop
endfacet
facet normal 0.6823182503600119 0.7310552682428684 0.0
outer loop
vertex 63.72369836840041 125.37884934265307 0.0
vertex 60.68123284276894 127.57752456674413 1.9999999999999998
vertex 63.72369836840041 125.37884934265307 1.9999999999999998
endloop
endfacet
facet normal 0.6823182503600119 0.7310552682428684 0.0
outer loop
vertex 63.72369836840041 125.37884934265307 0.0
vertex 66.12672709610008 122.49506326363505 1.9999999999999998
vertex 66.12672709610008 122.49506326363505 0.0
endloop
endfacet
facet normal 0.842139638425547 0.5392595195195806 0.0
outer loop
vertex 66.12672709610008 122.49506326363505 1.9999999999999998
vertex 63.72369836840041 125.37884934265307 0.0
vertex 63.72369836840041 125.37884934265307 1.9999999999999998
endloop
endfacet
facet normal 0.842139638425547 0.5392595195195806 0.0
outer loop
vertex 66.12672709610008 122.49506326363505 0.0
vertex 67.74054188511033 119.10590834795772 1.9999999999999998
vertex 67.74054188511033 119.10590834795772 0.0
endloop
endfacet
facet normal 0.9494717384072254 0.3138525417548206 0.0
outer loop
vertex 67.74054188511033 119.10590834795772 1.9999999999999998
vertex 66.12672709610008 122.49506326363505 0.0
vertex 66.12672709610008 122.49506326363505 1.9999999999999998
endloop
endfacet
facet normal 0.0 1.0 0.0
outer loop
vertex 53.46455610405883 129.42262548800136 1.9999999999999998
vertex 57.18896278703075 128.95404883949868 0.0
vertex 53.46455610405883 129.42262548800136 0.0
endloop
endfacet
facet normal 0.2477040074185597 0.9688357573442395 0.0
outer loop
vertex 57.18896278703075 128.95404883949868 0.0
vertex 53.46455610405883 129.42262548800136 1.9999999999999998
vertex 57.18896278703075 128.95404883949868 1.9999999999999998
endloop
endfacet
facet normal -1.0 0.0 0.0
outer loop
vertex 38.46455610405883 115.42262548800136 1.9999999999999998
vertex 38.46455610405883 49.422625488001344 0.0
vertex 38.46455610405883 49.422625488001344 1.9999999999999998
endloop
endfacet
facet normal -1.0 0.0 0.0
outer loop
vertex 38.46455610405883 49.422625488001344 0.0
vertex 38.46455610405883 115.42262548800136 1.9999999999999998
vertex 38.46455610405883 115.42262548800136 0.0
endloop
endfacet
facet normal -0.9494717384072264 0.3138525417548178 0.0
outer loop
vertex 39.18857032300732 119.10590834795772 1.9999999999999998
vertex 38.46455610405883 115.42262548800136 0.0
vertex 38.46455610405883 115.42262548800136 1.9999999999999998
endloop
endfacet
facet normal -0.9812230034231406 0.19287669002051874 0.0
outer loop
vertex 38.46455610405883 115.42262548800136 0.0
vertex 39.18857032300732 119.10590834795772 1.9999999999999998
vertex 39.18857032300732 119.10590834795772 0.0
endloop
endfacet
facet normal -3.8478341865512624e-33 8.50610613822252e-33 1.0
outer loop
vertex 38.46455610405883 49.422625488001344 1.9999999999999998
vertex 51.28913926093883 64.83972430168626 1.9999999999999998
vertex 38.46455610405883 115.42262548800136 1.9999999999999998
endloop
endfacet
facet normal -3.8478341865512624e-33 8.50610613822252e-33 1.0
outer loop
vertex 51.28913926093883 64.83972430168626 1.9999999999999998
vertex 38.46455610405883 49.422625488001344 1.9999999999999998
vertex 51.51413072077617 64.29654686792884 1.9999999999999998
endloop
endfacet
facet normal -3.8478341865512624e-33 8.50610613822252e-33 1.0
outer loop
vertex 51.51413072077617 64.29654686792884 1.9999999999999998
vertex 38.46455610405883 49.422625488001344 1.9999999999999998
vertex 51.87204044725389 63.8301098311964 1.9999999999999998
endloop
endfacet
facet normal -3.8478341865512624e-33 8.50610613822252e-33 1.0
outer loop
vertex 51.87204044725389 63.8301098311964 1.9999999999999998
vertex 38.46455610405883 49.422625488001344 1.9999999999999998
vertex 68.46455610405884 49.422625488001344 1.9999999999999998
endloop
endfacet
facet normal -3.8478341865512624e-33 8.50610613822252e-33 1.0
outer loop
vertex 38.46455610405883 115.42262548800136 1.9999999999999998
vertex 51.28913926093883 64.83972430168626 1.9999999999999998
vertex 39.18857032300732 119.10590834795772 1.9999999999999998
endloop
endfacet
facet normal -3.8478341865512624e-33 8.50610613822252e-33 1.0
outer loop
vertex 39.18857032300732 119.10590834795772 1.9999999999999998
vertex 51.28913926093883 64.83972430168626 1.9999999999999998
vertex 40.80238511201757 122.49506326363505 1.9999999999999998
endloop
endfacet
facet normal -3.8478341865512624e-33 8.50610613822252e-33 1.0
outer loop
vertex 40.80238511201757 122.49506326363505 1.9999999999999998
vertex 51.28913926093883 64.83972430168626 1.9999999999999998
vertex 43.205413839717224 125.37884934265307 1.9999999999999998
endloop
endfacet
facet normal -3.8478341865512624e-33 8.50610613822252e-33 1.0
outer loop
vertex 43.205413839717224 125.37884934265307 1.9999999999999998
vertex 51.28913926093883 64.83972430168626 1.9999999999999998
vertex 51.21239886391379 65.42262548800133 1.9999999999999998
endloop
endfacet
facet normal -3.8478341865512624e-33 8.50610613822252e-33 1.0
outer loop
vertex 43.205413839717224 125.37884934265307 1.9999999999999998
vertex 51.21239886391379 65.42262548800133 1.9999999999999998
vertex 46.24787936534871 127.57752456674413 1.9999999999999998
endloop
endfacet
facet normal -3.8478341865512624e-33 8.50610613822252e-33 1.0
outer loop
vertex 46.24787936534871 127.57752456674413 1.9999999999999998
vertex 51.21239886391379 65.42262548800133 1.9999999999999998
vertex 49.7401494210869 128.95404883949868 1.9999999999999998
endloop
endfacet
facet normal -3.8478341865512624e-33 8.50610613822252e-33 1.0
outer loop
vertex 51.87204044725389 63.8301098311964 1.9999999999999998
vertex 68.46455610405884 49.422625488001344 1.9999999999999998
vertex 52.3384774839863 63.4722001047187 1.9999999999999998
endloop
endfacet
facet normal -3.8478341865512624e-33 8.50610613822252e-33 1.0
outer loop
vertex 52.3384774839863 63.4722001047187 1.9999999999999998
vertex 68.46455610405884 49.422625488001344 1.9999999999999998
vertex 52.88165491774378 63.24720864488132 1.9999999999999998
endloop
endfacet
facet normal -3.8478341865512624e-33 8.50610613822252e-33 1.0
outer loop
vertex 52.88165491774378 63.24720864488132 1.9999999999999998
vertex 68.46455610405884 49.422625488001344 1.9999999999999998
vertex 53.46455610405883 63.170468247856306 1.9999999999999998
endloop
endfacet
facet normal -3.8478341865512624e-33 8.50610613822252e-33 1.0
outer loop
vertex 53.46455610405883 63.170468247856306 1.9999999999999998
vertex 68.46455610405884 49.422625488001344 1.9999999999999998
vertex 54.04745729037387 63.24720864488132 1.9999999999999998
endloop
endfacet
facet normal -3.8478341865512624e-33 8.50610613822252e-33 1.0
outer loop
vertex 54.04745729037387 63.24720864488132 1.9999999999999998
vertex 68.46455610405884 49.422625488001344 1.9999999999999998
vertex 54.59063472413135 63.4722001047187 1.9999999999999998
endloop
endfacet
facet normal -3.8478341865512624e-33 8.50610613822252e-33 1.0
outer loop
vertex 54.59063472413135 63.4722001047187 1.9999999999999998
vertex 68.46455610405884 49.422625488001344 1.9999999999999998
vertex 55.057071760863764 63.8301098311964 1.9999999999999998
endloop
endfacet
facet normal -3.8478341865512624e-33 8.50610613822252e-33 1.0
outer loop
vertex 55.057071760863764 63.8301098311964 1.9999999999999998
vertex 68.46455610405884 49.422625488001344 1.9999999999999998
vertex 55.41498148734146 64.29654686792881 1.9999999999999998
endloop
endfacet
facet normal -3.8478341865512624e-33 8.50610613822252e-33 1.0
outer loop
vertex 55.41498148734146 64.29654686792881 1.9999999999999998
vertex 68.46455610405884 49.422625488001344 1.9999999999999998
vertex 55.63997294717885 64.83972430168629 1.9999999999999998
endloop
endfacet
facet normal -3.8478341865512624e-33 8.50610613822252e-33 1.0
outer loop
vertex 55.63997294717885 64.83972430168629 1.9999999999999998
vertex 68.46455610405884 49.422625488001344 1.9999999999999998
vertex 55.71671334420386 65.42262548800134 1.9999999999999998
endloop
endfacet
facet normal -3.8478341865512624e-33 8.50610613822252e-33 1.0
outer loop
vertex 55.71671334420386 65.42262548800134 1.9999999999999998
vertex 68.46455610405884 49.422625488001344 1.9999999999999998
vertex 55.71671334420386 111.92262548800134 1.9999999999999998
endloop
endfacet
facet normal -3.8478341865512624e-33 8.50610613822252e-33 1.0
outer loop
vertex 55.71671334420386 111.92262548800134 1.9999999999999998
vertex 68.46455610405884 49.422625488001344 1.9999999999999998
vertex 57.18896278703075 128.95404883949868 1.9999999999999998
endloop
endfacet
facet normal -3.8478341865512624e-33 8.50610613822252e-33 1.0
outer loop
vertex 57.18896278703075 128.95404883949868 1.9999999999999998
vertex 68.46455610405884 49.422625488001344 1.9999999999999998
vertex 60.68123284276894 127.57752456674413 1.9999999999999998
endloop
endfacet
facet normal -3.8478341865512624e-33 8.50610613822252e-33 1.0
outer loop
vertex 60.68123284276894 127.57752456674413 1.9999999999999998
vertex 68.46455610405884 49.422625488001344 1.9999999999999998
vertex 63.72369836840041 125.37884934265307 1.9999999999999998
endloop
endfacet
facet normal -3.8478341865512624e-33 8.50610613822252e-33 1.0
outer loop
vertex 63.72369836840041 125.37884934265307 1.9999999999999998
vertex 68.46455610405884 49.422625488001344 1.9999999999999998
vertex 66.12672709610008 122.49506326363505 1.9999999999999998
endloop
endfacet
facet normal -3.8478341865512624e-33 8.50610613822252e-33 1.0
outer loop
vertex 66.12672709610008 122.49506326363505 1.9999999999999998
vertex 68.46455610405884 49.422625488001344 1.9999999999999998
vertex 67.74054188511033 119.10590834795772 1.9999999999999998
endloop
endfacet
facet normal -3.8478341865512624e-33 8.50610613822252e-33 1.0
outer loop
vertex 67.74054188511033 119.10590834795772 1.9999999999999998
vertex 68.46455610405884 49.422625488001344 1.9999999999999998
vertex 68.46455610405884 115.42262548800136 1.9999999999999998
endloop
endfacet
facet normal -3.8478341865512624e-33 8.50610613822252e-33 1.0
outer loop
vertex 49.7401494210869 128.95404883949868 1.9999999999999998
vertex 51.21239886391379 111.92262548800134 1.9999999999999998
vertex 53.46455610405883 129.42262548800136 1.9999999999999998
endloop
endfacet
facet normal -3.8478341865512624e-33 8.50610613822252e-33 1.0
outer loop
vertex 51.21239886391379 111.92262548800134 1.9999999999999998
vertex 49.7401494210869 128.95404883949868 1.9999999999999998
vertex 51.21239886391379 65.42262548800133 1.9999999999999998
endloop
endfacet
facet normal -3.8478341865512624e-33 8.50610613822252e-33 1.0
outer loop
vertex 53.46455610405883 129.42262548800136 1.9999999999999998
vertex 51.21239886391379 111.92262548800134 1.9999999999999998
vertex 51.28913926093881 112.5055266743164 1.9999999999999998
endloop
endfacet
facet normal -3.8478341865512624e-33 8.50610613822252e-33 1.0
outer loop
vertex 53.46455610405883 129.42262548800136 1.9999999999999998
vertex 51.28913926093881 112.5055266743164 1.9999999999999998
vertex 51.514130720776194 113.04870410807386 1.9999999999999998
endloop
endfacet
facet normal -3.8478341865512624e-33 8.50610613822252e-33 1.0
outer loop
vertex 53.46455610405883 129.42262548800136 1.9999999999999998
vertex 51.514130720776194 113.04870410807386 1.9999999999999998
vertex 51.87204044725389 113.5151411448063 1.9999999999999998
endloop
endfacet
facet normal -3.8478341865512624e-33 8.50610613822252e-33 1.0
outer loop
vertex 53.46455610405883 129.42262548800136 1.9999999999999998
vertex 51.87204044725389 113.5151411448063 1.9999999999999998
vertex 52.3384774839863 113.87305087128398 1.9999999999999998
endloop
endfacet
facet normal -3.8478341865512624e-33 8.50610613822252e-33 1.0
outer loop
vertex 53.46455610405883 129.42262548800136 1.9999999999999998
vertex 52.3384774839863 113.87305087128398 1.9999999999999998
vertex 52.88165491774378 114.09804233112135 1.9999999999999998
endloop
endfacet
facet normal -3.8478341865512624e-33 8.50610613822252e-33 1.0
outer loop
vertex 53.46455610405883 129.42262548800136 1.9999999999999998
vertex 52.88165491774378 114.09804233112135 1.9999999999999998
vertex 53.46455610405883 114.17478272814638 1.9999999999999998
endloop
endfacet
facet normal -3.8478341865512624e-33 8.50610613822252e-33 1.0
outer loop
vertex 53.46455610405883 129.42262548800136 1.9999999999999998
vertex 53.46455610405883 114.17478272814638 1.9999999999999998
vertex 54.04745729037387 114.09804233112135 1.9999999999999998
endloop
endfacet
facet normal -3.8478341865512624e-33 8.50610613822252e-33 1.0
outer loop
vertex 53.46455610405883 129.42262548800136 1.9999999999999998
vertex 54.04745729037387 114.09804233112135 1.9999999999999998
vertex 57.18896278703075 128.95404883949868 1.9999999999999998
endloop
endfacet
facet normal -3.8478341865512624e-33 8.50610613822252e-33 1.0
outer loop
vertex 57.18896278703075 128.95404883949868 1.9999999999999998
vertex 54.04745729037387 114.09804233112135 1.9999999999999998
vertex 54.59063472413135 113.87305087128398 1.9999999999999998
endloop
endfacet
facet normal -3.8478341865512624e-33 8.50610613822252e-33 1.0
outer loop
vertex 57.18896278703075 128.95404883949868 1.9999999999999998
vertex 54.59063472413135 113.87305087128398 1.9999999999999998
vertex 55.057071760863764 113.51514114480626 1.9999999999999998
endloop
endfacet
facet normal -3.8478341865512624e-33 8.50610613822252e-33 1.0
outer loop
vertex 57.18896278703075 128.95404883949868 1.9999999999999998
vertex 55.057071760863764 113.51514114480626 1.9999999999999998
vertex 55.41498148734146 113.04870410807386 1.9999999999999998
endloop
endfacet
facet normal -3.8478341865512624e-33 8.50610613822252e-33 1.0
outer loop
vertex 57.18896278703075 128.95404883949868 1.9999999999999998
vertex 55.41498148734146 113.04870410807386 1.9999999999999998
vertex 55.63997294717885 112.5055266743164 1.9999999999999998
endloop
endfacet
facet normal -3.8478341865512624e-33 8.50610613822252e-33 1.0
outer loop
vertex 57.18896278703075 128.95404883949868 1.9999999999999998
vertex 55.63997294717885 112.5055266743164 1.9999999999999998
vertex 55.71671334420386 111.92262548800134 1.9999999999999998
endloop
endfacet
facet normal -3.8478341865512624e-33 8.50610613822252e-33 1.0
outer loop
vertex 51.28913926093881 66.00552667431639 1.9999999999999998
vertex 51.21239886391379 111.92262548800134 1.9999999999999998
vertex 51.21239886391379 65.42262548800133 1.9999999999999998
endloop
endfacet
facet normal -3.8478341865512624e-33 8.50610613822252e-33 1.0
outer loop
vertex 51.21239886391379 111.92262548800134 1.9999999999999998
vertex 51.28913926093881 66.00552667431639 1.9999999999999998
vertex 51.28913926093881 111.33972430168629 1.9999999999999998
endloop
endfacet
facet normal -3.8478341865512624e-33 8.50610613822252e-33 1.0
outer loop
vertex 51.28913926093881 111.33972430168629 1.9999999999999998
vertex 51.28913926093881 66.00552667431639 1.9999999999999998
vertex 51.514130720776194 66.54870410807386 1.9999999999999998
endloop
endfacet
facet normal -3.8478341865512624e-33 8.50610613822252e-33 1.0
outer loop
vertex 51.28913926093881 111.33972430168629 1.9999999999999998
vertex 51.514130720776194 66.54870410807386 1.9999999999999998
vertex 51.514130720776194 110.79654686792883 1.9999999999999998
endloop
endfacet
facet normal -3.8478341865512624e-33 8.50610613822252e-33 1.0
outer loop
vertex 51.514130720776194 110.79654686792883 1.9999999999999998
vertex 51.514130720776194 66.54870410807386 1.9999999999999998
vertex 51.87204044725389 67.01514114480628 1.9999999999999998
endloop
endfacet
facet normal -3.8478341865512624e-33 8.50610613822252e-33 1.0
outer loop
vertex 51.514130720776194 110.79654686792883 1.9999999999999998
vertex 51.87204044725389 67.01514114480628 1.9999999999999998
vertex 51.87204044725389 110.33010983119641 1.9999999999999998
endloop
endfacet
facet normal -3.8478341865512624e-33 8.50610613822252e-33 1.0
outer loop
vertex 51.87204044725389 110.33010983119641 1.9999999999999998
vertex 51.87204044725389 67.01514114480628 1.9999999999999998
vertex 52.338477483986324 67.373050871284 1.9999999999999998
endloop
endfacet
facet normal -3.8478341865512624e-33 8.50610613822252e-33 1.0
outer loop
vertex 51.87204044725389 110.33010983119641 1.9999999999999998
vertex 52.338477483986324 67.373050871284 1.9999999999999998
vertex 52.3384774839863 109.97220010471871 1.9999999999999998
endloop
endfacet
facet normal -3.8478341865512624e-33 8.50610613822252e-33 1.0
outer loop
vertex 52.3384774839863 109.97220010471871 1.9999999999999998
vertex 52.338477483986324 67.373050871284 1.9999999999999998
vertex 52.88165491774378 109.74720864488134 1.9999999999999998
endloop
endfacet
facet normal -3.8478341865512624e-33 8.50610613822252e-33 1.0
outer loop
vertex 52.88165491774378 109.74720864488134 1.9999999999999998
vertex 52.338477483986324 67.373050871284 1.9999999999999998
vertex 52.88165491774376 67.59804233112133 1.9999999999999998
endloop
endfacet
facet normal -3.8478341865512624e-33 8.50610613822252e-33 1.0
outer loop
vertex 52.88165491774378 109.74720864488134 1.9999999999999998
vertex 52.88165491774376 67.59804233112133 1.9999999999999998
vertex 53.464556104058815 67.67478272814637 1.9999999999999998
endloop
endfacet
facet normal -3.8478341865512624e-33 8.50610613822252e-33 1.0
outer loop
vertex 52.88165491774378 109.74720864488134 1.9999999999999998
vertex 53.464556104058815 67.67478272814637 1.9999999999999998
vertex 53.46455610405883 109.67046824785629 1.9999999999999998
endloop
endfacet
facet normal -3.8478341865512624e-33 8.50610613822252e-33 1.0
outer loop
vertex 53.46455610405883 109.67046824785629 1.9999999999999998
vertex 53.464556104058815 67.67478272814637 1.9999999999999998
vertex 54.04745729037387 67.59804233112135 1.9999999999999998
endloop
endfacet
facet normal -3.8478341865512624e-33 8.50610613822252e-33 1.0
outer loop
vertex 53.46455610405883 109.67046824785629 1.9999999999999998
vertex 54.04745729037387 67.59804233112135 1.9999999999999998
vertex 54.04745729037387 109.74720864488134 1.9999999999999998
endloop
endfacet
facet normal -3.8478341865512624e-33 8.50610613822252e-33 1.0
outer loop
vertex 54.04745729037387 109.74720864488134 1.9999999999999998
vertex 54.04745729037387 67.59804233112135 1.9999999999999998
vertex 54.59063472413135 67.37305087128397 1.9999999999999998
endloop
endfacet
facet normal -3.8478341865512624e-33 8.50610613822252e-33 1.0
outer loop
vertex 54.04745729037387 109.74720864488134 1.9999999999999998
vertex 54.59063472413135 67.37305087128397 1.9999999999999998
vertex 54.59063472413135 109.97220010471871 1.9999999999999998
endloop
endfacet
facet normal -3.8478341865512624e-33 8.50610613822252e-33 1.0
outer loop
vertex 54.59063472413135 109.97220010471871 1.9999999999999998
vertex 54.59063472413135 67.37305087128397 1.9999999999999998
vertex 55.057071760863764 67.01514114480628 1.9999999999999998
endloop
endfacet
facet normal -3.8478341865512624e-33 8.50610613822252e-33 1.0
outer loop
vertex 54.59063472413135 109.97220010471871 1.9999999999999998
vertex 55.057071760863764 67.01514114480628 1.9999999999999998
vertex 55.057071760863764 110.3301098311964 1.9999999999999998
endloop
endfacet
facet normal -3.8478341865512624e-33 8.50610613822252e-33 1.0
outer loop
vertex 55.057071760863764 110.3301098311964 1.9999999999999998
vertex 55.057071760863764 67.01514114480628 1.9999999999999998
vertex 55.41498148734148 66.54870410807384 1.9999999999999998
endloop
endfacet
facet normal -3.8478341865512624e-33 8.50610613822252e-33 1.0
outer loop
vertex 55.057071760863764 110.3301098311964 1.9999999999999998
vertex 55.41498148734148 66.54870410807384 1.9999999999999998
vertex 55.41498148734146 110.79654686792883 1.9999999999999998
endloop
endfacet
facet normal -3.8478341865512624e-33 8.50610613822252e-33 1.0
outer loop
vertex 55.41498148734146 110.79654686792883 1.9999999999999998
vertex 55.41498148734148 66.54870410807384 1.9999999999999998
vertex 55.63997294717885 111.33972430168629 1.9999999999999998
endloop
endfacet
facet normal -3.8478341865512624e-33 8.50610613822252e-33 1.0
outer loop
vertex 55.63997294717885 111.33972430168629 1.9999999999999998
vertex 55.41498148734148 66.54870410807384 1.9999999999999998
vertex 55.63997294717882 66.0055266743164 1.9999999999999998
endloop
endfacet
facet normal -3.8478341865512624e-33 8.50610613822252e-33 1.0
outer loop
vertex 55.63997294717885 111.33972430168629 1.9999999999999998
vertex 55.63997294717882 66.0055266743164 1.9999999999999998
vertex 55.71671334420386 65.42262548800134 1.9999999999999998
endloop
endfacet
facet normal -3.8478341865512624e-33 8.50610613822252e-33 1.0
outer loop
vertex 55.63997294717885 111.33972430168629 1.9999999999999998
vertex 55.71671334420386 65.42262548800134 1.9999999999999998
vertex 55.71671334420386 111.92262548800134 1.9999999999999998
endloop
endfacet
facet normal -0.5000000000000049 -0.8660254037844357 0.0
outer loop
vertex 54.59063472413135 113.87305087128398 1.9999999999999998
vertex 54.04745729037387 114.09804233112135 1.762479051592436e-16
vertex 54.59063472413135 113.87305087128398 1.762479051592436e-16
endloop
endfacet
facet normal -0.2588190451025366 -0.9659258262890641 0.0
outer loop
vertex 54.04745729037387 114.09804233112135 1.762479051592436e-16
vertex 54.59063472413135 113.87305087128398 1.9999999999999998
vertex 54.04745729037387 114.09804233112135 1.9999999999999998
endloop
endfacet
facet normal -0.2588190451025366 -0.9659258262890641 0.0
outer loop
vertex 54.04745729037387 114.09804233112135 1.9999999999999998
vertex 53.46455610405883 114.17478272814638 1.762479051592436e-16
vertex 54.04745729037387 114.09804233112135 1.762479051592436e-16
endloop
endfacet
facet normal 0.0 -1.0 0.0
outer loop
vertex 53.46455610405883 114.17478272814638 1.762479051592436e-16
vertex 54.04745729037387 114.09804233112135 1.9999999999999998
vertex 53.46455610405883 114.17478272814638 1.9999999999999998
endloop
endfacet
facet normal 0.0 -1.0 0.0
outer loop
vertex 53.46455610405883 114.17478272814638 1.9999999999999998
vertex 52.88165491774378 114.09804233112135 1.762479051592436e-16
vertex 53.46455610405883 114.17478272814638 1.762479051592436e-16
endloop
endfacet
facet normal 0.2588190451025366 -0.9659258262890641 0.0
outer loop
vertex 52.88165491774378 114.09804233112135 1.762479051592436e-16
vertex 53.46455610405883 114.17478272814638 1.9999999999999998
vertex 52.88165491774378 114.09804233112135 1.9999999999999998
endloop
endfacet
facet normal 0.2588190451025366 -0.9659258262890641 0.0
outer loop
vertex 52.88165491774378 114.09804233112135 1.9999999999999998
vertex 52.3384774839863 113.87305087128398 1.762479051592436e-16
vertex 52.88165491774378 114.09804233112135 1.762479051592436e-16
endloop
endfacet
facet normal 0.4999999999999917 -0.8660254037844435 0.0
outer loop
vertex 52.3384774839863 113.87305087128398 1.762479051592436e-16
vertex 52.88165491774378 114.09804233112135 1.9999999999999998
vertex 52.3384774839863 113.87305087128398 1.9999999999999998
endloop
endfacet
facet normal 0.4999999999999917 -0.8660254037844435 0.0
outer loop
vertex 52.3384774839863 113.87305087128398 1.9999999999999998
vertex 51.87204044725389 113.5151411448063 1.762479051592436e-16
vertex 52.3384774839863 113.87305087128398 1.762479051592436e-16
endloop
endfacet
facet normal 0.7071067811865464 -0.7071067811865488 0.0
outer loop
vertex 51.87204044725389 113.5151411448063 1.762479051592436e-16
vertex 52.3384774839863 113.87305087128398 1.9999999999999998
vertex 51.87204044725389 113.5151411448063 1.9999999999999998
endloop
endfacet
facet normal 0.7071067811865464 -0.7071067811865488 0.0
outer loop
vertex 51.87204044725389 113.5151411448063 1.762479051592436e-16
vertex 51.514130720776194 113.04870410807386 1.9999999999999998
vertex 51.514130720776194 113.04870410807386 1.762479051592436e-16
endloop
endfacet
facet normal 0.8660254037844362 -0.500000000000004 0.0
outer loop
vertex 51.514130720776194 113.04870410807386 1.9999999999999998
vertex 51.87204044725389 113.5151411448063 1.762479051592436e-16
vertex 51.87204044725389 113.5151411448063 1.9999999999999998
endloop
endfacet
facet normal 0.8660254037844362 -0.500000000000004 0.0
outer loop
vertex 51.514130720776194 113.04870410807386 1.762479051592436e-16
vertex 51.28913926093881 112.5055266743164 1.9999999999999998
vertex 51.28913926093881 112.5055266743164 1.762479051592436e-16
endloop
endfacet
facet normal 0.9659258262890662 -0.2588190451025292 0.0
outer loop
vertex 51.28913926093881 112.5055266743164 1.9999999999999998
vertex 51.514130720776194 113.04870410807386 1.762479051592436e-16
vertex 51.514130720776194 113.04870410807386 1.9999999999999998
endloop
endfacet
facet normal 0.9659258262890662 -0.2588190451025292 0.0
outer loop
vertex 51.28913926093881 112.5055266743164 1.762479051592436e-16
vertex 51.21239886391379 111.92262548800134 1.9999999999999998
vertex 51.21239886391379 111.92262548800134 1.762479051592436e-16
endloop
endfacet
facet normal 1.0 0.0 0.0
outer loop
vertex 51.21239886391379 111.92262548800134 1.9999999999999998
vertex 51.28913926093881 112.5055266743164 1.762479051592436e-16
vertex 51.28913926093881 112.5055266743164 1.9999999999999998
endloop
endfacet
facet normal 1.0 0.0 0.0
outer loop
vertex 51.21239886391379 111.92262548800134 1.762479051592436e-16
vertex 51.28913926093881 111.33972430168629 1.9999999999999998
vertex 51.28913926093881 111.33972430168629 1.762479051592436e-16
endloop
endfacet
facet normal 0.9659258262890662 0.2588190451025292 0.0
outer loop
vertex 51.28913926093881 111.33972430168629 1.9999999999999998
vertex 51.21239886391379 111.92262548800134 1.762479051592436e-16
vertex 51.21239886391379 111.92262548800134 1.9999999999999998
endloop
endfacet
facet normal 0.9659258262890662 0.2588190451025292 0.0
outer loop
vertex 51.28913926093881 111.33972430168629 1.762479051592436e-16
vertex 51.514130720776194 110.79654686792883 1.9999999999999998
vertex 51.514130720776194 110.79654686792883 1.762479051592436e-16
endloop
endfacet
facet normal 0.8660254037844306 0.5000000000000142 0.0
outer loop
vertex 51.514130720776194 110.79654686792883 1.9999999999999998
vertex 51.28913926093881 111.33972430168629 1.762479051592436e-16
vertex 51.28913926093881 111.33972430168629 1.9999999999999998
endloop
endfacet
facet normal 0.8660254037844306 0.5000000000000142 0.0
outer loop
vertex 51.514130720776194 110.79654686792883 1.762479051592436e-16
vertex 51.87204044725389 110.33010983119641 1.9999999999999998
vertex 51.87204044725389 110.33010983119641 1.762479051592436e-16
endloop
endfacet
facet normal 0.7071067811865489 0.7071067811865462 0.0
outer loop
vertex 51.87204044725389 110.33010983119641 1.9999999999999998
vertex 51.514130720776194 110.79654686792883 1.762479051592436e-16
vertex 51.514130720776194 110.79654686792883 1.9999999999999998
endloop
endfacet
facet normal 0.7071067811865489 0.7071067811865462 0.0
outer loop
vertex 51.87204044725389 110.33010983119641 1.9999999999999998
vertex 52.3384774839863 109.97220010471871 1.762479051592436e-16
vertex 51.87204044725389 110.33010983119641 1.762479051592436e-16
endloop
endfacet
facet normal 0.5000000000000049 0.8660254037844357 0.0
outer loop
vertex 52.3384774839863 109.97220010471871 1.762479051592436e-16
vertex 51.87204044725389 110.33010983119641 1.9999999999999998
vertex 52.3384774839863 109.97220010471871 1.9999999999999998
endloop
endfacet
facet normal 0.5000000000000049 0.8660254037844357 0.0
outer loop
vertex 52.3384774839863 109.97220010471871 1.9999999999999998
vertex 52.88165491774378 109.74720864488134 1.762479051592436e-16
vertex 52.3384774839863 109.97220010471871 1.762479051592436e-16
endloop
endfacet
facet normal 0.2588190451025366 0.9659258262890641 0.0
outer loop
vertex 52.88165491774378 109.74720864488134 1.762479051592436e-16
vertex 52.3384774839863 109.97220010471871 1.9999999999999998
vertex 52.88165491774378 109.74720864488134 1.9999999999999998
endloop
endfacet
facet normal 0.2588190451025366 0.9659258262890641 0.0
outer loop
vertex 52.88165491774378 109.74720864488134 1.9999999999999998
vertex 53.46455610405883 109.67046824785629 1.762479051592436e-16
vertex 52.88165491774378 109.74720864488134 1.762479051592436e-16
endloop
endfacet
facet normal 0.0 1.0 0.0
outer loop
vertex 53.46455610405883 109.67046824785629 1.762479051592436e-16
vertex 52.88165491774378 109.74720864488134 1.9999999999999998
vertex 53.46455610405883 109.67046824785629 1.9999999999999998
endloop
endfacet
facet normal 0.0 1.0 0.0
outer loop
vertex 53.46455610405883 109.67046824785629 1.9999999999999998
vertex 54.04745729037387 109.74720864488134 1.762479051592436e-16
vertex 53.46455610405883 109.67046824785629 1.762479051592436e-16
endloop
endfacet
facet normal -0.2588190451025366 0.9659258262890641 0.0
outer loop
vertex 54.04745729037387 109.74720864488134 1.762479051592436e-16
vertex 53.46455610405883 109.67046824785629 1.9999999999999998
vertex 54.04745729037387 109.74720864488134 1.9999999999999998
endloop
endfacet
facet normal -0.2588190451025366 0.9659258262890641 0.0
outer loop
vertex 54.04745729037387 109.74720864488134 1.9999999999999998
vertex 54.59063472413135 109.97220010471871 1.762479051592436e-16
vertex 54.04745729037387 109.74720864488134 1.762479051592436e-16
endloop
endfacet
facet normal -0.4999999999999917 0.8660254037844435 0.0
outer loop
vertex 54.59063472413135 109.97220010471871 1.762479051592436e-16
vertex 54.04745729037387 109.74720864488134 1.9999999999999998
vertex 54.59063472413135 109.97220010471871 1.9999999999999998
endloop
endfacet
facet normal -0.4999999999999917 0.8660254037844435 0.0
outer loop
vertex 54.59063472413135 109.97220010471871 1.9999999999999998
vertex 55.057071760863764 110.3301098311964 1.762479051592436e-16
vertex 54.59063472413135 109.97220010471871 1.762479051592436e-16
endloop
endfacet
facet normal -0.7071067811865464 0.7071067811865488 0.0
outer loop
vertex 55.057071760863764 110.3301098311964 1.762479051592436e-16
vertex 54.59063472413135 109.97220010471871 1.9999999999999998
vertex 55.057071760863764 110.3301098311964 1.9999999999999998
endloop
endfacet
facet normal -0.8660254037844362 0.500000000000004 0.0
outer loop
vertex 55.41498148734146 110.79654686792883 1.9999999999999998
vertex 55.057071760863764 110.3301098311964 1.762479051592436e-16
vertex 55.057071760863764 110.3301098311964 1.9999999999999998
endloop
endfacet
facet normal -0.7071067811865464 0.7071067811865488 0.0
outer loop
vertex 55.057071760863764 110.3301098311964 1.762479051592436e-16
vertex 55.41498148734146 110.79654686792883 1.9999999999999998
vertex 55.41498148734146 110.79654686792883 1.762479051592436e-16
endloop
endfacet
facet normal -0.9659258262890662 0.2588190451025292 0.0
outer loop
vertex 55.63997294717885 111.33972430168629 1.9999999999999998
vertex 55.41498148734146 110.79654686792883 1.762479051592436e-16
vertex 55.41498148734146 110.79654686792883 1.9999999999999998
endloop
endfacet
facet normal -0.8660254037844362 0.500000000000004 0.0
outer loop
vertex 55.41498148734146 110.79654686792883 1.762479051592436e-16
vertex 55.63997294717885 111.33972430168629 1.9999999999999998
vertex 55.63997294717885 111.33972430168629 1.762479051592436e-16
endloop
endfacet
facet normal -1.0 0.0 0.0
outer loop
vertex 55.71671334420386 111.92262548800134 1.9999999999999998
vertex 55.63997294717885 111.33972430168629 1.762479051592436e-16
vertex 55.63997294717885 111.33972430168629 1.9999999999999998
endloop
endfacet
facet normal -0.9659258262890662 0.2588190451025292 0.0
outer loop
vertex 55.63997294717885 111.33972430168629 1.762479051592436e-16
vertex 55.71671334420386 111.92262548800134 1.9999999999999998
vertex 55.71671334420386 111.92262548800134 1.762479051592436e-16
endloop
endfacet
facet normal -0.9659258262890662 -0.2588190451025292 0.0
outer loop
vertex 55.63997294717885 112.5055266743164 1.9999999999999998
vertex 55.71671334420386 111.92262548800134 1.762479051592436e-16
vertex 55.71671334420386 111.92262548800134 1.9999999999999998
endloop
endfacet
facet normal -1.0 0.0 0.0
outer loop
vertex 55.71671334420386 111.92262548800134 1.762479051592436e-16
vertex 55.63997294717885 112.5055266743164 1.9999999999999998
vertex 55.63997294717885 112.5055266743164 1.762479051592436e-16
endloop
endfacet
facet normal -0.8660254037844306 -0.5000000000000142 0.0
outer loop
vertex 55.41498148734146 113.04870410807386 1.9999999999999998
vertex 55.63997294717885 112.5055266743164 1.762479051592436e-16
vertex 55.63997294717885 112.5055266743164 1.9999999999999998
endloop
endfacet
facet normal -0.9659258262890662 -0.2588190451025292 0.0
outer loop
vertex 55.63997294717885 112.5055266743164 1.762479051592436e-16
vertex 55.41498148734146 113.04870410807386 1.9999999999999998
vertex 55.41498148734146 113.04870410807386 1.762479051592436e-16
endloop
endfacet
facet normal -0.7071067811865489 -0.7071067811865462 0.0
outer loop
vertex 55.057071760863764 113.51514114480626 1.9999999999999998
vertex 55.41498148734146 113.04870410807386 1.762479051592436e-16
vertex 55.41498148734146 113.04870410807386 1.9999999999999998
endloop
endfacet
facet normal -0.8660254037844306 -0.5000000000000142 0.0
outer loop
vertex 55.41498148734146 113.04870410807386 1.762479051592436e-16
vertex 55.057071760863764 113.51514114480626 1.9999999999999998
vertex 55.057071760863764 113.51514114480626 1.762479051592436e-16
endloop
endfacet
facet normal -0.7071067811865489 -0.7071067811865462 0.0
outer loop
vertex 55.057071760863764 113.51514114480626 1.9999999999999998
vertex 54.59063472413135 113.87305087128398 1.762479051592436e-16
vertex 55.057071760863764 113.51514114480626 1.762479051592436e-16
endloop
endfacet
facet normal -0.5000000000000049 -0.8660254037844357 0.0
outer loop
vertex 54.59063472413135 113.87305087128398 1.762479051592436e-16
vertex 55.057071760863764 113.51514114480626 1.9999999999999998
vertex 54.59063472413135 113.87305087128398 1.9999999999999998
endloop
endfacet
facet normal -0.2588190451025268 0.9659258262890666 0.0
outer loop
vertex 54.04745729037387 63.24720864488132 1.9999999999999998
vertex 54.59063472413135 63.4722001047187 7.049916206369744e-16
vertex 54.04745729037387 63.24720864488132 7.049916206369744e-16
endloop
endfacet
facet normal -0.500000000000006 0.8660254037844353 0.0
outer loop
vertex 54.59063472413135 63.4722001047187 7.049916206369744e-16
vertex 54.04745729037387 63.24720864488132 1.9999999999999998
vertex 54.59063472413135 63.4722001047187 1.9999999999999998
endloop
endfacet
facet normal -0.500000000000006 0.8660254037844353 0.0
outer loop
vertex 54.59063472413135 63.4722001047187 1.9999999999999998
vertex 55.057071760863764 63.8301098311964 7.049916206369744e-16
vertex 54.59063472413135 63.4722001047187 7.049916206369744e-16
endloop
endfacet
facet normal -0.7071067811865476 0.7071067811865476 0.0
outer loop
vertex 55.057071760863764 63.8301098311964 7.049916206369744e-16
vertex 54.59063472413135 63.4722001047187 1.9999999999999998
vertex 55.057071760863764 63.8301098311964 1.9999999999999998
endloop
endfacet
facet normal -0.8660254037844353 0.500000000000006 0.0
outer loop
vertex 55.41498148734146 64.29654686792881 1.9999999999999998
vertex 55.057071760863764 63.8301098311964 7.049916206369744e-16
vertex 55.057071760863764 63.8301098311964 1.9999999999999998
endloop
endfacet
facet normal -0.7071067811865476 0.7071067811865476 0.0
outer loop
vertex 55.057071760863764 63.8301098311964 7.049916206369744e-16
vertex 55.41498148734146 64.29654686792881 1.9999999999999998
vertex 55.41498148734146 64.29654686792881 7.049916206369744e-16
endloop
endfacet
facet normal -0.965925826289067 0.2588190451025255 0.0
outer loop
vertex 55.63997294717885 64.83972430168629 1.9999999999999998
vertex 55.41498148734146 64.29654686792881 7.049916206369744e-16
vertex 55.41498148734146 64.29654686792881 1.9999999999999998
endloop
endfacet
facet normal -0.8660254037844353 0.500000000000006 0.0
outer loop
vertex 55.41498148734146 64.29654686792881 7.049916206369744e-16
vertex 55.63997294717885 64.83972430168629 1.9999999999999998
vertex 55.63997294717885 64.83972430168629 7.049916206369744e-16
endloop
endfacet
facet normal -1.0 -1.900739740741482e-14 0.0
outer loop
vertex 55.71671334420386 65.42262548800134 1.9999999999999998
vertex 55.63997294717885 64.83972430168629 7.049916206369744e-16
vertex 55.63997294717885 64.83972430168629 1.9999999999999998
endloop
endfacet
facet normal -0.965925826289067 0.2588190451025255 0.0
outer loop
vertex 55.63997294717885 64.83972430168629 7.049916206369744e-16
vertex 55.71671334420386 65.42262548800134 1.9999999999999998
vertex 55.71671334420386 65.42262548800134 7.049916206369744e-16
endloop
endfacet
facet normal -0.9659258262890674 -0.2588190451025239 0.0
outer loop
vertex 55.63997294717882 66.0055266743164 1.9999999999999998
vertex 55.71671334420386 65.42262548800134 7.049916206369744e-16
vertex 55.71671334420386 65.42262548800134 1.9999999999999998
endloop
endfacet
facet normal -1.0 -1.900739740741482e-14 0.0
outer loop
vertex 55.71671334420386 65.42262548800134 7.049916206369744e-16
vertex 55.63997294717882 66.0055266743164 1.9999999999999998
vertex 55.63997294717882 66.0055266743164 7.049916206369744e-16
endloop
endfacet
facet normal -0.8660254037844439 -0.49999999999999106 0.0
outer loop
vertex 55.41498148734148 66.54870410807384 1.9999999999999998
vertex 55.63997294717882 66.0055266743164 7.049916206369744e-16
vertex 55.63997294717882 66.0055266743164 1.9999999999999998
endloop
endfacet
facet normal -0.9659258262890674 -0.2588190451025239 0.0
outer loop
vertex 55.63997294717882 66.0055266743164 7.049916206369744e-16
vertex 55.41498148734148 66.54870410807384 1.9999999999999998
vertex 55.41498148734148 66.54870410807384 7.049916206369744e-16
endloop
endfacet
facet normal -0.7071067811865451 -0.70710678118655 0.0
outer loop
vertex 55.057071760863764 67.01514114480628 1.9999999999999998
vertex 55.41498148734148 66.54870410807384 7.049916206369744e-16
vertex 55.41498148734148 66.54870410807384 1.9999999999999998
endloop
endfacet
facet normal -0.8660254037844439 -0.49999999999999106 0.0
outer loop
vertex 55.41498148734148 66.54870410807384 7.049916206369744e-16
vertex 55.057071760863764 67.01514114480628 1.9999999999999998
vertex 55.057071760863764 67.01514114480628 7.049916206369744e-16
endloop
endfacet
facet normal -0.7071067811865451 -0.70710678118655 0.0
outer loop
vertex 55.057071760863764 67.01514114480628 1.9999999999999998
vertex 54.59063472413135 67.37305087128397 7.049916206369744e-16
vertex 55.057071760863764 67.01514114480628 7.049916206369744e-16
endloop
endfacet
facet normal -0.500000000000006 -0.8660254037844353 0.0
outer loop
vertex 54.59063472413135 67.37305087128397 7.049916206369744e-16
vertex 55.057071760863764 67.01514114480628 1.9999999999999998
vertex 54.59063472413135 67.37305087128397 1.9999999999999998
endloop
endfacet
facet normal -0.500000000000006 -0.8660254037844353 0.0
outer loop
vertex 54.59063472413135 67.37305087128397 1.9999999999999998
vertex 54.04745729037387 67.59804233112135 7.049916206369744e-16
vertex 54.59063472413135 67.37305087128397 7.049916206369744e-16
endloop
endfacet
facet normal -0.2588190451025255 -0.965925826289067 0.0
outer loop
vertex 54.04745729037387 67.59804233112135 7.049916206369744e-16
vertex 54.59063472413135 67.37305087128397 1.9999999999999998
vertex 54.04745729037387 67.59804233112135 1.9999999999999998
endloop
endfacet
facet normal -0.2588190451025255 -0.965925826289067 0.0
outer loop
vertex 54.04745729037387 67.59804233112135 1.9999999999999998
vertex 53.464556104058815 67.67478272814637 7.049916206369744e-16
vertex 54.04745729037387 67.59804233112135 7.049916206369744e-16
endloop
endfacet
facet normal 1.900739740741482e-14 -1.0 0.0
outer loop
vertex 53.464556104058815 67.67478272814637 7.049916206369744e-16
vertex 54.04745729037387 67.59804233112135 1.9999999999999998
vertex 53.464556104058815 67.67478272814637 1.9999999999999998
endloop
endfacet
facet normal 1.900739740741482e-14 -1.0 0.0
outer loop
vertex 53.464556104058815 67.67478272814637 1.9999999999999998
vertex 52.88165491774376 67.59804233112133 7.049916206369744e-16
vertex 53.464556104058815 67.67478272814637 7.049916206369744e-16
endloop
endfacet
facet normal 0.2588190451025239 -0.9659258262890674 0.0
outer loop
vertex 52.88165491774376 67.59804233112133 7.049916206369744e-16
vertex 53.464556104058815 67.67478272814637 1.9999999999999998
vertex 52.88165491774376 67.59804233112133 1.9999999999999998
endloop
endfacet
facet normal 0.2588190451025239 -0.9659258262890674 0.0
outer loop
vertex 52.88165491774376 67.59804233112133 1.9999999999999998
vertex 52.338477483986324 67.373050871284 7.049916206369744e-16
vertex 52.88165491774376 67.59804233112133 7.049916206369744e-16
endloop
endfacet
facet normal 0.49999999999999106 -0.8660254037844439 0.0
outer loop
vertex 52.338477483986324 67.373050871284 7.049916206369744e-16
vertex 52.88165491774376 67.59804233112133 1.9999999999999998
vertex 52.338477483986324 67.373050871284 1.9999999999999998
endloop
endfacet
facet normal 0.49999999999999106 -0.8660254037844439 0.0
outer loop
vertex 52.338477483986324 67.373050871284 1.9999999999999998
vertex 51.87204044725389 67.01514114480628 7.049916206369744e-16
vertex 52.338477483986324 67.373050871284 7.049916206369744e-16
endloop
endfacet
facet normal 0.70710678118655 -0.7071067811865451 0.0
outer loop
vertex 51.87204044725389 67.01514114480628 7.049916206369744e-16
vertex 52.338477483986324 67.373050871284 1.9999999999999998
vertex 51.87204044725389 67.01514114480628 1.9999999999999998
endloop
endfacet
facet normal 0.70710678118655 -0.7071067811865451 0.0
outer loop
vertex 51.87204044725389 67.01514114480628 7.049916206369744e-16
vertex 51.514130720776194 66.54870410807386 1.9999999999999998
vertex 51.514130720776194 66.54870410807386 7.049916206369744e-16
endloop
endfacet
facet normal 0.8660254037844353 -0.500000000000006 0.0
outer loop
vertex 51.514130720776194 66.54870410807386 1.9999999999999998
vertex 51.87204044725389 67.01514114480628 7.049916206369744e-16
vertex 51.87204044725389 67.01514114480628 1.9999999999999998
endloop
endfacet
facet normal 0.8660254037844353 -0.500000000000006 0.0
outer loop
vertex 51.514130720776194 66.54870410807386 7.049916206369744e-16
vertex 51.28913926093881 66.00552667431639 1.9999999999999998
vertex 51.28913926093881 66.00552667431639 7.049916206369744e-16
endloop
endfacet
facet normal 0.965925826289067 -0.2588190451025255 0.0
outer loop
vertex 51.28913926093881 66.00552667431639 1.9999999999999998
vertex 51.514130720776194 66.54870410807386 7.049916206369744e-16
vertex 51.514130720776194 66.54870410807386 1.9999999999999998
endloop
endfacet
facet normal 0.965925826289067 -0.2588190451025255 0.0
outer loop
vertex 51.28913926093881 66.00552667431639 7.049916206369744e-16
vertex 51.21239886391379 65.42262548800133 1.9999999999999998
vertex 51.21239886391379 65.42262548800133 7.049916206369744e-16
endloop
endfacet
facet normal 1.0 1.900739740741482e-14 0.0
outer loop
vertex 51.21239886391379 65.42262548800133 1.9999999999999998
vertex 51.28913926093881 66.00552667431639 7.049916206369744e-16
vertex 51.28913926093881 66.00552667431639 1.9999999999999998
endloop
endfacet
facet normal 1.0 1.900739740741482e-14 0.0
outer loop
vertex 51.21239886391379 65.42262548800133 7.049916206369744e-16
vertex 51.28913926093883 64.83972430168626 1.9999999999999998
vertex 51.28913926093883 64.83972430168626 7.049916206369744e-16
endloop
endfacet
facet normal 0.9659258262890674 0.2588190451025239 0.0
outer loop
vertex 51.28913926093883 64.83972430168626 1.9999999999999998
vertex 51.21239886391379 65.42262548800133 7.049916206369744e-16
vertex 51.21239886391379 65.42262548800133 1.9999999999999998
endloop
endfacet
facet normal 0.9659258262890674 0.2588190451025239 0.0
outer loop
vertex 51.28913926093883 64.83972430168626 7.049916206369744e-16
vertex 51.51413072077617 64.29654686792884 1.9999999999999998
vertex 51.51413072077617 64.29654686792884 7.049916206369744e-16
endloop
endfacet
facet normal 0.8660254037844439 0.49999999999999106 0.0
outer loop
vertex 51.51413072077617 64.29654686792884 1.9999999999999998
vertex 51.28913926093883 64.83972430168626 7.049916206369744e-16
vertex 51.28913926093883 64.83972430168626 1.9999999999999998
endloop
endfacet
facet normal 0.8660254037844439 0.49999999999999106 0.0
outer loop
vertex 51.51413072077617 64.29654686792884 7.049916206369744e-16
vertex 51.87204044725389 63.8301098311964 1.9999999999999998
vertex 51.87204044725389 63.8301098311964 7.049916206369744e-16
endloop
endfacet
facet normal 0.7071067811865451 0.70710678118655 0.0
outer loop
vertex 51.87204044725389 63.8301098311964 1.9999999999999998
vertex 51.51413072077617 64.29654686792884 7.049916206369744e-16
vertex 51.51413072077617 64.29654686792884 1.9999999999999998
endloop
endfacet
facet normal 0.7071067811865451 0.70710678118655 0.0
outer loop
vertex 51.87204044725389 63.8301098311964 1.9999999999999998
vertex 52.3384774839863 63.4722001047187 7.049916206369744e-16
vertex 51.87204044725389 63.8301098311964 7.049916206369744e-16
endloop
endfacet
facet normal 0.500000000000006 0.8660254037844353 0.0
outer loop
vertex 52.3384774839863 63.4722001047187 7.049916206369744e-16
vertex 51.87204044725389 63.8301098311964 1.9999999999999998
vertex 52.3384774839863 63.4722001047187 1.9999999999999998
endloop
endfacet
facet normal 0.500000000000006 0.8660254037844353 0.0
outer loop
vertex 52.3384774839863 63.4722001047187 1.9999999999999998
vertex 52.88165491774378 63.24720864488132 7.049916206369744e-16
vertex 52.3384774839863 63.4722001047187 7.049916206369744e-16
endloop
endfacet
facet normal 0.2588190451025268 0.9659258262890666 0.0
outer loop
vertex 52.88165491774378 63.24720864488132 7.049916206369744e-16
vertex 52.3384774839863 63.4722001047187 1.9999999999999998
vertex 52.88165491774378 63.24720864488132 1.9999999999999998
endloop
endfacet
facet normal 0.2588190451025268 0.9659258262890666 0.0
outer loop
vertex 52.88165491774378 63.24720864488132 1.9999999999999998
vertex 53.46455610405883 63.170468247856306 7.049916206369744e-16
vertex 52.88165491774378 63.24720864488132 7.049916206369744e-16
endloop
endfacet
facet normal 0.0 1.0 0.0
outer loop
vertex 53.46455610405883 63.170468247856306 7.049916206369744e-16
vertex 52.88165491774378 63.24720864488132 1.9999999999999998
vertex 53.46455610405883 63.170468247856306 1.9999999999999998
endloop
endfacet
facet normal 0.0 1.0 0.0
outer loop
vertex 53.46455610405883 63.170468247856306 1.9999999999999998
vertex 54.04745729037387 63.24720864488132 7.049916206369744e-16
vertex 53.46455610405883 63.170468247856306 7.049916206369744e-16
endloop
endfacet
facet normal -0.2588190451025268 0.9659258262890666 0.0
outer loop
vertex 54.04745729037387 63.24720864488132 7.049916206369744e-16
vertex 53.46455610405883 63.170468247856306 1.9999999999999998
vertex 54.04745729037387 63.24720864488132 1.9999999999999998
endloop
endfacet
facet normal -6.365375187086105e-18 -9.191436497370443e-18 -1.0
outer loop
vertex 53.46455610405883 129.42262548800136 0.0
vertex 51.21239886391379 111.92262548800134 1.762479051592436e-16
vertex 49.7401494210869 128.95404883949868 0.0
endloop
endfacet
facet normal -6.365375187086105e-18 -9.191436497370443e-18 -1.0
outer loop
vertex 51.21239886391379 111.92262548800134 1.762479051592436e-16
vertex 53.46455610405883 129.42262548800136 0.0
vertex 51.28913926093881 112.5055266743164 1.762479051592436e-16
endloop
endfacet
facet normal -6.365375187086105e-18 -9.191436497370443e-18 -1.0
outer loop
vertex 51.28913926093881 112.5055266743164 1.762479051592436e-16
vertex 53.46455610405883 129.42262548800136 0.0
vertex 51.514130720776194 113.04870410807386 1.762479051592436e-16
endloop
endfacet
facet normal -6.365375187086105e-18 -9.191436497370443e-18 -1.0
outer loop
vertex 51.514130720776194 113.04870410807386 1.762479051592436e-16
vertex 53.46455610405883 129.42262548800136 0.0
vertex 51.87204044725389 113.5151411448063 1.762479051592436e-16
endloop
endfacet
facet normal -6.365375187086105e-18 -9.191436497370443e-18 -1.0
outer loop
vertex 51.87204044725389 113.5151411448063 1.762479051592436e-16
vertex 53.46455610405883 129.42262548800136 0.0
vertex 52.3384774839863 113.87305087128398 1.762479051592436e-16
endloop
endfacet
facet normal -6.365375187086105e-18 -9.191436497370443e-18 -1.0
outer loop
vertex 52.3384774839863 113.87305087128398 1.762479051592436e-16
vertex 53.46455610405883 129.42262548800136 0.0
vertex 52.88165491774378 114.09804233112135 1.762479051592436e-16
endloop
endfacet
facet normal -6.365375187086105e-18 -9.191436497370443e-18 -1.0
outer loop
vertex 52.88165491774378 114.09804233112135 1.762479051592436e-16
vertex 53.46455610405883 129.42262548800136 0.0
vertex 53.46455610405883 114.17478272814638 1.762479051592436e-16
endloop
endfacet
facet normal -6.365375187086105e-18 -9.191436497370443e-18 -1.0
outer loop
vertex 53.46455610405883 114.17478272814638 1.762479051592436e-16
vertex 53.46455610405883 129.42262548800136 0.0
vertex 57.18896278703075 128.95404883949868 0.0
endloop
endfacet
facet normal -6.365375187086105e-18 -9.191436497370443e-18 -1.0
outer loop
vertex 53.46455610405883 114.17478272814638 1.762479051592436e-16
vertex 57.18896278703075 128.95404883949868 0.0
vertex 54.04745729037387 114.09804233112135 1.762479051592436e-16
endloop
endfacet
facet normal -6.365375187086105e-18 -9.191436497370443e-18 -1.0
outer loop
vertex 54.04745729037387 114.09804233112135 1.762479051592436e-16
vertex 57.18896278703075 128.95404883949868 0.0
vertex 54.59063472413135 113.87305087128398 1.762479051592436e-16
endloop
endfacet
facet normal -6.365375187086105e-18 -9.191436497370443e-18 -1.0
outer loop
vertex 54.59063472413135 113.87305087128398 1.762479051592436e-16
vertex 57.18896278703075 128.95404883949868 0.0
vertex 55.057071760863764 113.51514114480626 1.762479051592436e-16
endloop
endfacet
facet normal -6.365375187086105e-18 -9.191436497370443e-18 -1.0
outer loop
vertex 55.057071760863764 113.51514114480626 1.762479051592436e-16
vertex 57.18896278703075 128.95404883949868 0.0
vertex 55.41498148734146 113.04870410807386 1.762479051592436e-16
endloop
endfacet
facet normal -6.365375187086105e-18 -9.191436497370443e-18 -1.0
outer loop
vertex 55.41498148734146 113.04870410807386 1.762479051592436e-16
vertex 57.18896278703075 128.95404883949868 0.0
vertex 55.63997294717885 112.5055266743164 1.762479051592436e-16
endloop
endfacet
facet normal -6.365375187086105e-18 -9.191436497370443e-18 -1.0
outer loop
vertex 55.63997294717885 112.5055266743164 1.762479051592436e-16
vertex 57.18896278703075 128.95404883949868 0.0
vertex 55.71671334420386 111.92262548800134 1.762479051592436e-16
endloop
endfacet
facet normal -6.365375187086105e-18 -9.191436497370443e-18 -1.0
outer loop
vertex 55.71671334420386 111.92262548800134 1.762479051592436e-16
vertex 57.18896278703075 128.95404883949868 0.0
vertex 55.71671334420386 65.42262548800134 7.049916206369744e-16
endloop
endfacet
facet normal -6.365375187086105e-18 -9.191436497370443e-18 -1.0
outer loop
vertex 39.18857032300732 119.10590834795772 0.0
vertex 38.46455610405883 49.422625488001344 0.0
vertex 38.46455610405883 115.42262548800136 0.0
endloop
endfacet
facet normal -6.365375187086105e-18 -9.191436497370443e-18 -1.0
outer loop
vertex 38.46455610405883 49.422625488001344 0.0
vertex 39.18857032300732 119.10590834795772 0.0
vertex 51.28913926093883 64.83972430168626 7.049916206369744e-16
endloop
endfacet
facet normal -6.365375187086105e-18 -9.191436497370443e-18 -1.0
outer loop
vertex 38.46455610405883 49.422625488001344 0.0
vertex 51.28913926093883 64.83972430168626 7.049916206369744e-16
vertex 51.51413072077617 64.29654686792884 7.049916206369744e-16
endloop
endfacet
facet normal -6.365375187086105e-18 -9.191436497370443e-18 -1.0
outer loop
vertex 38.46455610405883 49.422625488001344 0.0
vertex 51.51413072077617 64.29654686792884 7.049916206369744e-16
vertex 51.87204044725389 63.8301098311964 7.049916206369744e-16
endloop
endfacet
facet normal -6.365375187086105e-18 -9.191436497370443e-18 -1.0
outer loop
vertex 38.46455610405883 49.422625488001344 0.0
vertex 51.87204044725389 63.8301098311964 7.049916206369744e-16
vertex 68.46455610405884 49.422625488001344 0.0
endloop
endfacet
facet normal -6.365375187086105e-18 -9.191436497370443e-18 -1.0
outer loop
vertex 51.28913926093883 64.83972430168626 7.049916206369744e-16
vertex 39.18857032300732 119.10590834795772 0.0
vertex 40.80238511201757 122.49506326363505 0.0
endloop
endfacet
facet normal -6.365375187086105e-18 -9.191436497370443e-18 -1.0
outer loop
vertex 51.28913926093883 64.83972430168626 7.049916206369744e-16
vertex 40.80238511201757 122.49506326363505 0.0
vertex 43.205413839717224 125.37884934265307 0.0
endloop
endfacet
facet normal -6.365375187086105e-18 -9.191436497370443e-18 -1.0
outer loop
vertex 51.28913926093883 64.83972430168626 7.049916206369744e-16
vertex 43.205413839717224 125.37884934265307 0.0
vertex 51.21239886391379 65.42262548800133 7.049916206369744e-16
endloop
endfacet
facet normal -6.365375187086105e-18 -9.191436497370443e-18 -1.0
outer loop
vertex 51.21239886391379 65.42262548800133 7.049916206369744e-16
vertex 43.205413839717224 125.37884934265307 0.0
vertex 46.24787936534871 127.57752456674413 0.0
endloop
endfacet
facet normal -6.365375187086105e-18 -9.191436497370443e-18 -1.0
outer loop
vertex 51.21239886391379 65.42262548800133 7.049916206369744e-16
vertex 46.24787936534871 127.57752456674413 0.0
vertex 49.7401494210869 128.95404883949868 0.0
endloop
endfacet
facet normal -6.365375187086105e-18 -9.191436497370443e-18 -1.0
outer loop
vertex 51.21239886391379 65.42262548800133 7.049916206369744e-16
vertex 49.7401494210869 128.95404883949868 0.0
vertex 51.21239886391379 111.92262548800134 1.762479051592436e-16
endloop
endfacet
facet normal -6.365375187086105e-18 -9.191436497370443e-18 -1.0
outer loop
vertex 68.46455610405884 49.422625488001344 0.0
vertex 51.87204044725389 63.8301098311964 7.049916206369744e-16
vertex 52.3384774839863 63.4722001047187 7.049916206369744e-16
endloop
endfacet
facet normal -6.365375187086105e-18 -9.191436497370443e-18 -1.0
outer loop
vertex 68.46455610405884 49.422625488001344 0.0
vertex 52.3384774839863 63.4722001047187 7.049916206369744e-16
vertex 52.88165491774378 63.24720864488132 7.049916206369744e-16
endloop
endfacet
facet normal -6.365375187086105e-18 -9.191436497370443e-18 -1.0
outer loop
vertex 68.46455610405884 49.422625488001344 0.0
vertex 52.88165491774378 63.24720864488132 7.049916206369744e-16
vertex 53.46455610405883 63.170468247856306 7.049916206369744e-16
endloop
endfacet
facet normal -6.365375187086105e-18 -9.191436497370443e-18 -1.0
outer loop
vertex 68.46455610405884 49.422625488001344 0.0
vertex 53.46455610405883 63.170468247856306 7.049916206369744e-16
vertex 54.04745729037387 63.24720864488132 7.049916206369744e-16
endloop
endfacet
facet normal -6.365375187086105e-18 -9.191436497370443e-18 -1.0
outer loop
vertex 68.46455610405884 49.422625488001344 0.0
vertex 54.04745729037387 63.24720864488132 7.049916206369744e-16
vertex 54.59063472413135 63.4722001047187 7.049916206369744e-16
endloop
endfacet
facet normal -6.365375187086105e-18 -9.191436497370443e-18 -1.0
outer loop
vertex 68.46455610405884 49.422625488001344 0.0
vertex 54.59063472413135 63.4722001047187 7.049916206369744e-16
vertex 55.057071760863764 63.8301098311964 7.049916206369744e-16
endloop
endfacet
facet normal -6.365375187086105e-18 -9.191436497370443e-18 -1.0
outer loop
vertex 68.46455610405884 49.422625488001344 0.0
vertex 55.057071760863764 63.8301098311964 7.049916206369744e-16
vertex 55.41498148734146 64.29654686792881 7.049916206369744e-16
endloop
endfacet
facet normal -6.365375187086105e-18 -9.191436497370443e-18 -1.0
outer loop
vertex 68.46455610405884 49.422625488001344 0.0
vertex 55.41498148734146 64.29654686792881 7.049916206369744e-16
vertex 55.63997294717885 64.83972430168629 7.049916206369744e-16
endloop
endfacet
facet normal -6.365375187086105e-18 -9.191436497370443e-18 -1.0
outer loop
vertex 68.46455610405884 49.422625488001344 0.0
vertex 55.63997294717885 64.83972430168629 7.049916206369744e-16
vertex 55.71671334420386 65.42262548800134 7.049916206369744e-16
endloop
endfacet
facet normal -6.365375187086105e-18 -9.191436497370443e-18 -1.0
outer loop
vertex 68.46455610405884 49.422625488001344 0.0
vertex 55.71671334420386 65.42262548800134 7.049916206369744e-16
vertex 57.18896278703075 128.95404883949868 0.0
endloop
endfacet
facet normal -6.365375187086105e-18 -9.191436497370443e-18 -1.0
outer loop
vertex 68.46455610405884 49.422625488001344 0.0
vertex 57.18896278703075 128.95404883949868 0.0
vertex 60.68123284276894 127.57752456674413 0.0
endloop
endfacet
facet normal -6.365375187086105e-18 -9.191436497370443e-18 -1.0
outer loop
vertex 68.46455610405884 49.422625488001344 0.0
vertex 60.68123284276894 127.57752456674413 0.0
vertex 63.72369836840041 125.37884934265307 0.0
endloop
endfacet
facet normal -6.365375187086105e-18 -9.191436497370443e-18 -1.0
outer loop
vertex 68.46455610405884 49.422625488001344 0.0
vertex 63.72369836840041 125.37884934265307 0.0
vertex 66.12672709610008 122.49506326363505 0.0
endloop
endfacet
facet normal -6.365375187086105e-18 -9.191436497370443e-18 -1.0
outer loop
vertex 68.46455610405884 49.422625488001344 0.0
vertex 66.12672709610008 122.49506326363505 0.0
vertex 67.74054188511033 119.10590834795772 0.0
endloop
endfacet
facet normal -6.365375187086105e-18 -9.191436497370443e-18 -1.0
outer loop
vertex 68.46455610405884 49.422625488001344 0.0
vertex 67.74054188511033 119.10590834795772 0.0
vertex 68.46455610405884 115.42262548800136 0.0
endloop
endfacet
facet normal -6.365375187086105e-18 -9.191436497370443e-18 -1.0
outer loop
vertex 51.28913926093881 111.33972430168629 1.762479051592436e-16
vertex 51.21239886391379 65.42262548800133 7.049916206369744e-16
vertex 51.21239886391379 111.92262548800134 1.762479051592436e-16
endloop
endfacet
facet normal -6.365375187086105e-18 -9.191436497370443e-18 -1.0
outer loop
vertex 51.21239886391379 65.42262548800133 7.049916206369744e-16
vertex 51.28913926093881 111.33972430168629 1.762479051592436e-16
vertex 51.28913926093881 66.00552667431639 7.049916206369744e-16
endloop
endfacet
facet normal -6.365375187086105e-18 -9.191436497370443e-18 -1.0
outer loop
vertex 51.28913926093881 66.00552667431639 7.049916206369744e-16
vertex 51.28913926093881 111.33972430168629 1.762479051592436e-16
vertex 51.514130720776194 110.79654686792883 1.762479051592436e-16
endloop
endfacet
facet normal -6.365375187086105e-18 -9.191436497370443e-18 -1.0
outer loop
vertex 51.28913926093881 66.00552667431639 7.049916206369744e-16
vertex 51.514130720776194 110.79654686792883 1.762479051592436e-16
vertex 51.514130720776194 66.54870410807386 7.049916206369744e-16
endloop
endfacet
facet normal -6.365375187086105e-18 -9.191436497370443e-18 -1.0
outer loop
vertex 51.514130720776194 66.54870410807386 7.049916206369744e-16
vertex 51.514130720776194 110.79654686792883 1.762479051592436e-16
vertex 51.87204044725389 110.33010983119641 1.762479051592436e-16
endloop
endfacet
facet normal -6.365375187086105e-18 -9.191436497370443e-18 -1.0
outer loop
vertex 51.514130720776194 66.54870410807386 7.049916206369744e-16
vertex 51.87204044725389 110.33010983119641 1.762479051592436e-16
vertex 51.87204044725389 67.01514114480628 7.049916206369744e-16
endloop
endfacet
facet normal -6.365375187086105e-18 -9.191436497370443e-18 -1.0
outer loop
vertex 51.87204044725389 67.01514114480628 7.049916206369744e-16
vertex 51.87204044725389 110.33010983119641 1.762479051592436e-16
vertex 52.3384774839863 109.97220010471871 1.762479051592436e-16
endloop
endfacet
facet normal -6.365375187086105e-18 -9.191436497370443e-18 -1.0
outer loop
vertex 51.87204044725389 67.01514114480628 7.049916206369744e-16
vertex 52.3384774839863 109.97220010471871 1.762479051592436e-16
vertex 52.338477483986324 67.373050871284 7.049916206369744e-16
endloop
endfacet
facet normal -6.365375187086105e-18 -9.191436497370443e-18 -1.0
outer loop
vertex 52.338477483986324 67.373050871284 7.049916206369744e-16
vertex 52.3384774839863 109.97220010471871 1.762479051592436e-16
vertex 52.88165491774378 109.74720864488134 1.762479051592436e-16
endloop
endfacet
facet normal -6.365375187086105e-18 -9.191436497370443e-18 -1.0
outer loop
vertex 52.338477483986324 67.373050871284 7.049916206369744e-16
vertex 52.88165491774378 109.74720864488134 1.762479051592436e-16
vertex 52.88165491774376 67.59804233112133 7.049916206369744e-16
endloop
endfacet
facet normal -6.365375187086105e-18 -9.191436497370443e-18 -1.0
outer loop
vertex 52.88165491774376 67.59804233112133 7.049916206369744e-16
vertex 52.88165491774378 109.74720864488134 1.762479051592436e-16
vertex 53.464556104058815 67.67478272814637 7.049916206369744e-16
endloop
endfacet
facet normal -6.365375187086105e-18 -9.191436497370443e-18 -1.0
outer loop
vertex 53.464556104058815 67.67478272814637 7.049916206369744e-16
vertex 52.88165491774378 109.74720864488134 1.762479051592436e-16
vertex 53.46455610405883 109.67046824785629 1.762479051592436e-16
endloop
endfacet
facet normal -6.365375187086105e-18 -9.191436497370443e-18 -1.0
outer loop
vertex 53.464556104058815 67.67478272814637 7.049916206369744e-16
vertex 53.46455610405883 109.67046824785629 1.762479051592436e-16
vertex 54.04745729037387 67.59804233112135 7.049916206369744e-16
endloop
endfacet
facet normal -6.365375187086105e-18 -9.191436497370443e-18 -1.0
outer loop
vertex 54.04745729037387 67.59804233112135 7.049916206369744e-16
vertex 53.46455610405883 109.67046824785629 1.762479051592436e-16
vertex 54.04745729037387 109.74720864488134 1.762479051592436e-16
endloop
endfacet
facet normal -6.365375187086105e-18 -9.191436497370443e-18 -1.0
outer loop
vertex 54.04745729037387 67.59804233112135 7.049916206369744e-16
vertex 54.04745729037387 109.74720864488134 1.762479051592436e-16
vertex 54.59063472413135 109.97220010471871 1.762479051592436e-16
endloop
endfacet
facet normal -6.365375187086105e-18 -9.191436497370443e-18 -1.0
outer loop
vertex 54.04745729037387 67.59804233112135 7.049916206369744e-16
vertex 54.59063472413135 109.97220010471871 1.762479051592436e-16
vertex 54.59063472413135 67.37305087128397 7.049916206369744e-16
endloop
endfacet
facet normal -6.365375187086105e-18 -9.191436497370443e-18 -1.0
outer loop
vertex 54.59063472413135 67.37305087128397 7.049916206369744e-16
vertex 54.59063472413135 109.97220010471871 1.762479051592436e-16
vertex 55.057071760863764 110.3301098311964 1.762479051592436e-16
endloop
endfacet
facet normal -6.365375187086105e-18 -9.191436497370443e-18 -1.0
outer loop
vertex 54.59063472413135 67.37305087128397 7.049916206369744e-16
vertex 55.057071760863764 110.3301098311964 1.762479051592436e-16
vertex 55.057071760863764 67.01514114480628 7.049916206369744e-16
endloop
endfacet
facet normal -6.365375187086105e-18 -9.191436497370443e-18 -1.0
outer loop
vertex 55.057071760863764 67.01514114480628 7.049916206369744e-16
vertex 55.057071760863764 110.3301098311964 1.762479051592436e-16
vertex 55.41498148734146 110.79654686792883 1.762479051592436e-16
endloop
endfacet
facet normal -6.365375187086105e-18 -9.191436497370443e-18 -1.0
outer loop
vertex 55.057071760863764 67.01514114480628 7.049916206369744e-16
vertex 55.41498148734146 110.79654686792883 1.762479051592436e-16
vertex 55.41498148734148 66.54870410807384 7.049916206369744e-16
endloop
endfacet
facet normal -6.365375187086105e-18 -9.191436497370443e-18 -1.0
outer loop
vertex 55.41498148734148 66.54870410807384 7.049916206369744e-16
vertex 55.41498148734146 110.79654686792883 1.762479051592436e-16
vertex 55.63997294717885 111.33972430168629 1.762479051592436e-16
endloop
endfacet
facet normal -6.365375187086105e-18 -9.191436497370443e-18 -1.0
outer loop
vertex 55.41498148734148 66.54870410807384 7.049916206369744e-16
vertex 55.63997294717885 111.33972430168629 1.762479051592436e-16
vertex 55.63997294717882 66.0055266743164 7.049916206369744e-16
endloop
endfacet
facet normal -6.365375187086105e-18 -9.191436497370443e-18 -1.0
outer loop
vertex 55.63997294717882 66.0055266743164 7.049916206369744e-16
vertex 55.63997294717885 111.33972430168629 1.762479051592436e-16
vertex 55.71671334420386 65.42262548800134 7.049916206369744e-16
endloop
endfacet
facet normal -6.365375187086105e-18 -9.191436497370443e-18 -1.0
outer loop
vertex 55.71671334420386 65.42262548800134 7.049916206369744e-16
vertex 55.63997294717885 111.33972430168629 1.762479051592436e-16
vertex 55.71671334420386 111.92262548800134 1.762479051592436e-16
endloop
endfacet
endsolid Ghost_Tapa
